<svg width="20" height="21" viewBox="0 0 20 21" fill="none" xmlns="http://www.w3.org/2000/svg">
<path d="M1.24829 10.004C1.24829 8.27337 1.76184 6.58164 2.72331 5.14271C3.68477 3.70378 5.05105 2.58232 6.6499 1.92005C8.24875 1.25779 10.0083 1.08439 11.7056 1.42201C13.403 1.75963 14.9619 2.59291 16.1856 3.81662C17.4093 5.04033 18.2426 6.59967 18.5802 8.29701C18.9179 9.99434 18.7449 11.7535 18.0826 13.3523C17.4203 14.9512 16.2985 16.3179 14.8595 17.2793C13.4206 18.2408 11.7289 18.754 9.99829 18.754C7.67846 18.7513 5.45458 17.8284 3.81421 16.188C2.17384 14.5477 1.25094 12.3238 1.24829 10.004ZM2.08162 10.004C2.08162 11.5697 2.54596 13.1003 3.41585 14.4022C4.28575 15.704 5.52233 16.7188 6.96891 17.318C8.41549 17.9172 10.0072 18.0739 11.5429 17.7684C13.0786 17.463 14.4893 16.7089 15.5964 15.6017C16.7036 14.4945 17.4577 13.0838 17.7632 11.5481C18.0686 10.0125 17.9115 8.42075 17.3123 6.97417C16.7131 5.52759 15.6988 4.29141 14.3969 3.42152C13.095 2.55162 11.5641 2.08729 9.99829 2.08729C7.89962 2.09016 5.88812 2.925 4.40422 4.40907C2.92031 5.89313 2.08549 7.90528 2.08284 10.004H2.08162ZM9.58162 13.3373V10.4206H6.66496C6.55445 10.4206 6.4485 10.3767 6.37036 10.2986C6.29222 10.2204 6.24829 10.1145 6.24829 10.004C6.24829 9.89345 6.29222 9.7875 6.37036 9.70936C6.4485 9.63122 6.55445 9.58729 6.66496 9.58729H9.58162V6.67062C9.58162 6.56012 9.62555 6.45417 9.70369 6.37603C9.78183 6.29789 9.88778 6.25396 9.99829 6.25396C10.1088 6.25396 10.2152 6.29789 10.2933 6.37603C10.3714 6.45417 10.415 6.56012 10.415 6.67062V9.58729H13.3316C13.4421 9.58729 13.5485 9.63122 13.6266 9.70936C13.7048 9.7875 13.7483 9.89345 13.7483 10.004C13.7483 10.1145 13.7048 10.2204 13.6266 10.2986C13.5485 10.3767 13.4421 10.4206 13.3316 10.4206H10.415V13.3373C10.415 13.4478 10.3714 13.5537 10.2933 13.6319C10.2152 13.71 10.1088 13.754 9.99829 13.754C9.88778 13.754 9.78183 13.71 9.70369 13.6319C9.62555 13.5537 9.58162 13.4478 9.58162 13.3373Z" fill="#6F59CA"/>
</svg>
