<svg width="37" height="40" viewBox="0 0 37 40" fill="none" xmlns="http://www.w3.org/2000/svg">
<path d="M21.5368 19.8684C21.5172 18.8527 21.4662 17.8386 21.3839 16.8262C21.2581 15.1478 21.019 13.4799 20.6683 11.8338C20.2219 9.81392 19.3681 7.90635 18.1591 6.2278C18.0863 6.12129 17.9906 6.03246 17.879 5.96783C17.7674 5.9032 17.6427 5.86443 17.5141 5.85436C17.3855 5.8443 17.2563 5.86319 17.136 5.90967C17.0156 5.95614 16.9073 6.02901 16.8188 6.1229C15.8182 7.1391 14.8182 8.15586 13.8187 9.17316C13.7361 9.25136 13.6698 9.34517 13.6236 9.44918C13.5775 9.55319 13.5524 9.66532 13.5499 9.77907C13.5474 9.89282 13.5675 10.0059 13.609 10.1119C13.6505 10.2178 13.7127 10.3145 13.7918 10.3962C14.4609 11.1326 15.0566 11.9324 15.5706 12.7843C16.3936 14.1652 17.0287 15.6497 17.4592 17.1985C17.7829 18.3563 18.0231 19.5359 18.178 20.7281C18.321 21.7944 18.3771 22.8707 18.3458 23.9461C18.3165 24.8758 18.2259 25.8025 18.0745 26.7202C18.0582 26.8222 18.0219 26.9199 17.9678 27.0079C17.9136 27.0958 17.8427 27.1722 17.759 27.2328C17.6754 27.2933 17.5806 27.3368 17.4801 27.3607C17.3797 27.3846 17.2755 27.3885 17.1735 27.3721C17.0715 27.3557 16.9738 27.3195 16.8858 27.2653C16.7979 27.2112 16.7215 27.1403 16.6609 27.0566C16.6004 26.973 16.5569 26.8782 16.533 26.7777C16.5091 26.6773 16.5052 26.5731 16.5216 26.4711C16.7073 25.3469 16.7925 24.2084 16.7761 23.0691C16.7549 21.9586 16.6388 20.8519 16.4292 19.7612C16.2445 18.7416 15.9718 17.74 15.6144 16.7675C15.5507 16.5407 15.4043 16.3461 15.2041 16.222C15.0623 16.1432 14.8997 16.1104 14.7385 16.128C14.5773 16.1455 14.4255 16.2127 14.3041 16.3202C14.1827 16.4277 14.0977 16.5702 14.0607 16.7281C14.0238 16.886 14.0367 17.0514 14.0978 17.2016C14.3809 17.9227 14.6073 18.6646 14.7751 19.4208C14.9272 20.1002 15.038 20.7882 15.1068 21.4809C15.1519 21.9316 15.1837 22.3831 15.195 22.836C15.2064 22.9076 15.1984 22.981 15.1717 23.0485C15.1451 23.1159 15.1008 23.175 15.0435 23.2195C14.9862 23.264 14.918 23.2923 14.8461 23.3015C14.7741 23.3106 14.701 23.3002 14.6344 23.2714C14.23 23.1819 13.8413 23.0322 13.4814 22.8273C13.1333 22.6129 12.8374 22.3237 12.6151 21.9807C12.3928 21.6376 12.2497 21.2493 12.1963 20.844C12.0439 19.827 11.9016 18.8078 11.7552 17.7905C11.6848 17.3009 11.6132 16.8113 11.5476 16.3209C11.5453 16.2884 11.5338 16.2571 11.5145 16.2308C11.4952 16.2045 11.4688 16.1842 11.4385 16.1722C10.0884 15.4962 8.73709 14.8224 7.39104 14.1386C6.98291 13.9439 6.62914 13.6515 6.36109 13.2873C6.09305 12.9231 5.91902 12.4984 5.85444 12.0509C5.75675 11.4662 5.84841 10.8656 6.11606 10.3366C6.3837 9.8077 6.81334 9.37808 7.34231 9.11043C8.70472 8.42755 10.0759 7.76175 11.4441 7.0905C11.4778 7.07779 11.5072 7.05575 11.5288 7.02697C11.5504 6.99819 11.5634 6.96385 11.5663 6.92796C11.721 5.858 11.8816 4.78876 12.0408 3.71934C12.1136 3.22972 12.1705 2.73755 12.2632 2.25102C12.3757 1.69016 12.658 1.17743 13.0717 0.782329C13.4854 0.387225 14.0105 0.12884 14.576 0.0421883C15.0193 -0.0368712 15.4752 -0.00446816 15.9028 0.136479C16.3304 0.277426 16.7162 0.522494 17.0256 0.849618C18.0951 1.93195 19.1489 3.02973 20.2075 4.12333C20.2326 4.15379 20.2658 4.1765 20.3032 4.1888C20.3407 4.2011 20.3809 4.20248 20.4192 4.19278C21.9268 3.93388 23.4344 3.67461 24.9437 3.42571C25.6696 3.31515 26.41 3.49243 27.0071 3.91977C27.6042 4.34711 28.0107 4.99073 28.1402 5.71346C28.2522 6.36396 28.1384 7.03322 27.8176 7.61012C27.1152 8.93117 26.4192 10.2557 25.7188 11.5778C25.7039 11.6008 25.6959 11.6275 25.6956 11.6549C25.6954 11.6822 25.7029 11.7091 25.7174 11.7323C26.4221 13.0761 27.1292 14.4188 27.8265 15.7669C28.1722 16.4108 28.2537 17.164 28.0539 17.8669C27.854 18.5699 27.3884 19.1675 26.7556 19.5332C26.5974 19.6227 26.4672 19.7543 26.3794 19.9134C26.2917 20.0726 26.2498 20.2529 26.2585 20.4344C26.2585 20.9193 26.2597 21.4044 26.2505 21.8889C26.231 22.894 26.1777 23.8974 26.0841 24.8983C26.0755 25.0044 26.0454 25.1077 25.9955 25.2019C25.9457 25.296 25.8773 25.379 25.7944 25.4459C25.7114 25.5127 25.6158 25.562 25.5132 25.5907C25.4106 25.6194 25.3033 25.6269 25.1977 25.6128C24.9922 25.5836 24.8064 25.4751 24.6801 25.3105C24.5538 25.1458 24.497 24.9383 24.522 24.7323C24.5786 24.1227 24.6129 23.5116 24.6431 22.9C24.69 21.9167 24.6999 20.9328 24.6811 19.949C24.6584 18.7603 24.6395 17.5712 24.5688 16.3842C24.5531 16.1229 24.5291 15.862 24.5108 15.6009C24.5052 15.4968 24.4789 15.3949 24.4335 15.301C24.3881 15.2072 24.3244 15.1233 24.2462 15.0543C24.1681 14.9853 24.0769 14.9326 23.9782 14.8992C23.8794 14.8658 23.775 14.8524 23.6709 14.8598C23.5669 14.8672 23.4654 14.8952 23.3724 14.9422C23.2793 14.9892 23.1966 15.0543 23.1289 15.1337C23.0613 15.213 23.0101 15.3051 22.9784 15.4044C22.9467 15.5037 22.9352 15.6084 22.9443 15.7122C23.0189 16.6084 23.0534 17.5062 23.0756 18.4047C23.1031 19.4803 23.1265 20.5559 23.1103 21.6318C23.1107 21.8378 23.0302 22.0357 22.8862 22.1828C22.7421 22.33 22.546 22.4148 22.34 22.4188C22.1341 22.4228 21.9348 22.3458 21.7851 22.2044C21.6354 22.063 21.5472 21.8684 21.5396 21.6626C21.5337 21.1282 21.5381 20.5935 21.5379 20.0592L21.5368 19.8684Z" fill="#5439AC"/>
<path d="M22.9181 23.9475C22.8659 24.5293 22.8237 25.1639 22.7515 25.796C22.6374 26.8288 22.4497 27.8522 22.1897 28.8583C22.1482 29.0325 22.0484 29.1874 21.9068 29.2971C21.7652 29.4068 21.5903 29.4647 21.4112 29.4613C21.2321 29.4578 21.0596 29.3932 20.9223 29.2782C20.7849 29.1631 20.6911 29.0046 20.6564 28.8288C20.6328 28.7068 20.6385 28.5808 20.673 28.4614C20.9249 27.5117 21.102 26.5437 21.2028 25.5664C21.2684 24.9691 21.2993 24.3688 21.3637 23.7715C21.3712 23.6678 21.3998 23.5667 21.4477 23.4743C21.4956 23.382 21.5618 23.3004 21.6422 23.2344C21.7226 23.1684 21.8157 23.1195 21.9156 23.0907C22.0155 23.0618 22.1203 23.0536 22.2235 23.0665C22.6299 23.0977 22.9355 23.4615 22.9181 23.9475Z" fill="#5439AC"/>
<path d="M19.0357 34.9022C19.0357 34.078 19.0357 33.2538 19.0357 32.4296C19.0291 32.2595 19.0797 32.0921 19.1794 31.9542C19.2791 31.8163 19.4222 31.7159 19.5858 31.6689C19.6962 31.6371 19.8124 31.6311 19.9255 31.6515C20.0385 31.6719 20.1454 31.718 20.2377 31.7864C20.3301 31.8547 20.4054 31.9435 20.4579 32.0456C20.5104 32.1478 20.5387 32.2607 20.5405 32.3756C20.5458 32.7876 20.5414 33.1997 20.5418 33.6119C20.5425 34.7841 20.5434 35.9562 20.5445 37.1283C20.5366 37.461 20.6553 37.7844 20.8766 38.0329C21.098 38.2814 21.4055 38.4367 21.7369 38.4672C22.0683 38.4977 22.399 38.4012 22.662 38.1972C22.925 37.9933 23.1008 37.6971 23.1537 37.3685C23.1776 37.1208 23.1836 36.8717 23.1719 36.6231C23.1693 35.98 23.1901 35.3375 23.1964 34.6948C23.1891 34.4992 23.2573 34.3083 23.3868 34.1616C23.5164 34.0149 23.6975 33.9236 23.8925 33.9068C24.084 33.8908 24.2744 33.9494 24.4237 34.0704C24.5731 34.1913 24.67 34.3654 24.6941 34.556C24.853 35.5207 25.3333 36.4034 26.0569 37.0609C26.8559 37.8392 27.89 38.3315 28.9979 38.4608C30.1472 38.5976 31.3062 38.2998 32.2471 37.6259C33.1465 36.9862 33.898 36.1607 34.4507 35.2053C34.6285 34.9144 34.7856 34.6126 34.9438 34.311C35.0135 34.1751 35.123 34.0637 35.2578 33.9918C35.3925 33.9199 35.546 33.891 35.6977 33.9088C35.8494 33.9266 35.992 33.9903 36.1065 34.0914C36.2209 34.1926 36.3017 34.3263 36.338 34.4746C36.3849 34.6443 36.3671 34.8254 36.2878 34.9826C35.7277 36.1738 34.9523 37.2513 34.0007 38.1608C33.1002 39.0249 31.9756 39.6194 30.7543 39.8768C29.4813 40.1348 28.1593 39.9862 26.9753 39.4521C26.1041 39.0729 25.3232 38.5132 24.6843 37.8099C24.6661 37.7903 24.6536 37.7527 24.6214 37.7619C24.5892 37.7712 24.5992 37.8105 24.5916 37.8363C24.2461 39.0214 23.4661 39.741 22.2562 39.9473C21.6891 40.0335 21.1092 39.9421 20.5962 39.6855C20.0832 39.4289 19.6622 39.0197 19.391 38.5143C19.1696 38.1232 19.0508 37.6825 19.0456 37.2332" fill="#5439AC"/>
<path d="M3.77879 33.1523C4.01862 33.3692 4.25953 33.5723 4.48245 33.7956C5.03558 34.3204 5.45649 34.9688 5.71068 35.6877C5.73592 35.7541 5.75533 35.8225 5.76868 35.8922C5.78286 35.9902 5.82323 36.0244 5.92741 36.0208C6.19633 36.0115 6.46561 36.019 6.73471 36.0175C6.85475 36.0184 6.97377 35.9953 7.08474 35.9496C7.19572 35.9038 7.29641 35.8363 7.38091 35.751C7.4654 35.6658 7.53197 35.5644 7.57673 35.4531C7.62147 35.3417 7.64349 35.2225 7.64147 35.1024C7.63294 34.9216 7.63634 34.7405 7.65166 34.5601C7.67473 34.3761 7.7654 34.2072 7.90604 34.0862C8.04669 33.9653 8.22727 33.901 8.4127 33.9057C8.59813 33.9105 8.77518 33.984 8.90943 34.112C9.04369 34.24 9.12557 34.4133 9.13917 34.5983C9.18422 35.016 9.14867 35.4385 9.03444 35.8428C8.89271 36.2959 8.61947 36.6966 8.24945 36.994C7.87943 37.2914 7.42933 37.4721 6.95636 37.5131C6.61707 37.5444 6.27688 37.5238 5.93723 37.5253C5.84632 37.5253 5.81123 37.5491 5.79086 37.6409C5.64891 38.378 5.2267 39.0313 4.613 39.4636C4.20105 39.7436 3.7249 39.9147 3.22895 39.961C3.02792 39.9794 2.82602 39.9864 2.6242 39.9819C2.01145 39.9819 1.3987 39.9819 0.785949 39.9819C0.685508 39.9846 0.585551 39.9671 0.49194 39.9306C0.39833 39.8941 0.312952 39.8393 0.24081 39.7694C0.168669 39.6994 0.111216 39.6158 0.0718228 39.5234C0.0324299 39.431 0.0118883 39.3316 0.0114041 39.2311C0.0109199 39.1307 0.0305038 39.0311 0.069004 38.9383C0.107504 38.8455 0.164147 38.7613 0.235611 38.6907C0.307076 38.6201 0.391922 38.5644 0.485176 38.527C0.578431 38.4896 0.678215 38.4712 0.778678 38.4729C1.45143 38.4693 2.12418 38.4707 2.79694 38.4729C3.01671 38.4783 3.23571 38.4449 3.44386 38.3742C3.67369 38.2902 3.87674 38.1461 4.03181 37.9569C4.18687 37.7676 4.28825 37.5402 4.32535 37.2984C4.48899 36.5735 4.28572 35.9377 3.85079 35.3601C3.37838 34.7637 2.79642 34.2631 2.13618 33.885C1.62673 33.5771 1.08869 33.3192 0.529576 33.1149C0.411103 33.078 0.303571 33.0125 0.216526 32.924C0.129481 32.8356 0.0656189 32.7271 0.0306114 32.6081C-0.00439602 32.489 -0.00946435 32.3632 0.0158543 32.2417C0.0411729 32.1203 0.0960946 32.007 0.175745 31.9118C0.239639 31.8307 0.320606 31.7647 0.412897 31.7183C0.505188 31.672 0.606542 31.6466 0.709766 31.6438C0.727949 31.6438 0.745221 31.6438 0.762858 31.6438C3.29871 31.6438 5.83456 31.6438 8.37041 31.6438C8.54776 31.639 8.72097 31.6979 8.85852 31.81C8.99607 31.922 9.08882 32.0797 9.11989 32.2544C9.13922 32.3565 9.13714 32.4615 9.1138 32.5628C9.09046 32.664 9.04637 32.7594 8.98431 32.8428C8.92224 32.9261 8.84356 32.9957 8.75323 33.0471C8.6629 33.0985 8.56288 33.1306 8.4595 33.1414C8.37841 33.148 8.29696 33.1516 8.2155 33.1516C6.80939 33.1522 5.40327 33.1522 3.99716 33.1516L3.77879 33.1523Z" fill="#5439AC"/>
<path d="M13.3947 31.6436C13.7522 31.6436 14.0427 31.6436 14.3331 31.6436C14.4308 31.6396 14.5284 31.6548 14.6201 31.6886C14.7119 31.7223 14.7962 31.7738 14.868 31.8402C14.9398 31.9065 14.9978 31.9864 15.0387 32.0752C15.0796 32.1641 15.1025 32.2601 15.1062 32.3578C15.1137 32.4574 15.1008 32.5575 15.0681 32.6519C15.0353 32.7464 14.9836 32.833 14.9161 32.9066C14.8485 32.9802 14.7665 33.0392 14.6753 33.0799C14.584 33.1205 14.4854 33.142 14.3855 33.143C13.8229 33.159 13.2595 33.151 12.6966 33.153C12.5378 33.1486 12.3809 33.1876 12.2427 33.2658C12.1045 33.344 11.9902 33.4584 11.9122 33.5967C11.8281 33.738 11.7849 33.8999 11.7875 34.0643C11.7851 34.4125 11.7833 34.7608 11.7875 35.109C11.7856 35.228 11.8074 35.3463 11.8517 35.4568C11.8959 35.5673 11.9617 35.668 12.0452 35.7529C12.1286 35.8378 12.2282 35.9053 12.3379 35.9514C12.4477 35.9975 12.5656 36.0213 12.6846 36.0215C12.8037 36.0217 12.9216 35.9982 13.0315 35.9524C13.1414 35.9066 13.2411 35.8394 13.3249 35.7547C13.4086 35.67 13.4746 35.5696 13.5192 35.4592C13.5637 35.3488 13.5859 35.2306 13.5844 35.1115C13.5875 34.9375 13.5844 34.7632 13.5855 34.5892C13.5833 34.4891 13.6011 34.3896 13.638 34.2966C13.6749 34.2035 13.7301 34.1188 13.8002 34.0474C13.8704 33.976 13.9541 33.9194 14.0465 33.8809C14.1389 33.8424 14.2381 33.8228 14.3382 33.8233C14.4383 33.8238 14.5373 33.8443 14.6293 33.8836C14.7214 33.9229 14.8046 33.9803 14.8741 34.0524C14.9436 34.1244 14.998 34.2096 15.034 34.303C15.07 34.3964 15.087 34.496 15.0838 34.5961C15.1072 34.9722 15.0835 35.3498 15.0135 35.72C14.8894 36.2006 14.6198 36.6311 14.2416 36.9526C13.8634 37.2741 13.3951 37.4708 12.9007 37.5158C12.2767 37.5785 11.6533 37.3909 11.1675 36.9942C10.6817 36.5974 10.3734 36.024 10.3102 35.4001C10.22 34.7651 10.2355 34.1196 10.3562 33.4898C10.4635 33.0156 10.7143 32.5861 11.0744 32.2595C11.4345 31.9329 11.8864 31.7251 12.3687 31.6644C12.7322 31.6167 13.0977 31.658 13.3947 31.6436Z" fill="#5439AC"/>
<path d="M17.9034 33.759C17.8961 34.1601 17.9215 34.668 17.8826 35.1751C17.7748 36.5551 17.3293 37.7881 16.3008 38.7568C15.6202 39.4042 14.7518 39.8188 13.8205 39.9411C13.5872 39.9866 13.3484 39.9963 13.1123 39.97C12.9257 39.9413 12.757 39.8426 12.6406 39.694C12.5241 39.5454 12.4686 39.3581 12.4853 39.1701C12.4992 38.9782 12.5861 38.7989 12.7282 38.6691C12.8702 38.5394 13.0566 38.469 13.249 38.4725C13.943 38.4708 14.6138 38.2222 15.1413 37.7712C15.6983 37.2886 16.0856 36.6398 16.2462 35.9205C16.3487 35.5103 16.3993 35.0888 16.3966 34.666C16.3966 33.9131 16.3949 33.1603 16.3966 32.4074C16.395 32.3086 16.4129 32.2104 16.4492 32.1185C16.4855 32.0266 16.5396 31.9427 16.6084 31.8717C16.6771 31.8007 16.7592 31.7439 16.8499 31.7046C16.9406 31.6653 17.0381 31.6443 17.137 31.6427C17.2358 31.6411 17.334 31.659 17.4259 31.6953C17.5178 31.7316 17.6017 31.7857 17.6727 31.8545C17.7437 31.9232 17.8005 32.0053 17.8398 32.096C17.8791 32.1867 17.9001 32.2842 17.9017 32.383C17.9077 32.8072 17.9034 33.2299 17.9034 33.759Z" fill="#5439AC"/>
<path d="M8.7973 39.9825C8.24857 39.9825 7.69984 39.985 7.15112 39.9825C6.96645 39.982 6.78853 39.9131 6.6516 39.7892C6.51467 39.6653 6.42843 39.4951 6.40948 39.3114C6.3906 39.1333 6.43561 38.9543 6.53649 38.8063C6.63736 38.6583 6.78753 38.5509 6.96021 38.5034C7.03529 38.4826 7.11286 38.4723 7.19076 38.4725C8.27039 38.4725 9.35021 38.4701 10.4298 38.4734C10.5573 38.4686 10.6839 38.4962 10.7977 38.5537C10.9116 38.6111 11.009 38.6966 11.0809 38.8019C11.1527 38.9073 11.1967 39.0292 11.2086 39.1562C11.2205 39.2831 11.1999 39.4111 11.1489 39.528C11.0969 39.6636 11.0043 39.7798 10.8837 39.8608C10.7631 39.9419 10.6205 39.9837 10.4753 39.9807C9.91603 39.9878 9.35676 39.9823 8.7973 39.9825Z" fill="#5439AC"/>
<path d="M23.8974 33.146C23.3949 33.146 22.8921 33.148 22.3896 33.146C22.2043 33.1465 22.0254 33.0786 21.8872 32.9553C21.7489 32.832 21.661 32.662 21.6404 32.4779C21.6198 32.2938 21.6679 32.1085 21.7754 31.9577C21.883 31.8069 22.0425 31.7011 22.2232 31.6606C22.268 31.6502 22.3138 31.6449 22.3598 31.6449C23.3934 31.6449 24.4269 31.6418 25.4605 31.6449C25.6342 31.6473 25.8014 31.7113 25.9322 31.8256C26.0631 31.94 26.1489 32.0971 26.1745 32.2689C26.1938 32.3757 26.1896 32.4854 26.162 32.5904C26.1345 32.6953 26.0843 32.7929 26.015 32.8764C25.9457 32.9599 25.8589 33.0272 25.7609 33.0737C25.6628 33.1201 25.5557 33.1445 25.4472 33.1451C25.1289 33.1498 24.8109 33.146 24.4916 33.146H23.8974Z" fill="#5439AC"/>
</svg>
