<svg width="200" height="200" viewBox="0 0 200 200" fill="none" xmlns="http://www.w3.org/2000/svg">
<path d="M100 137.018L153.472 106.235V44.0977L100 74.8811V137.018Z" fill="#808285"/>
<path d="M100 143.288L41.408 109.084V41.2468L100 7.04297L158.592 41.2468V109.084L100 143.288Z" stroke="#00AEEF" stroke-width="5" stroke-linejoin="round"/>
<path d="M153.473 44.0969L100 13.3135L46.5276 44.0969L100 74.8804L153.473 44.0969Z" fill="#00AEEF"/>
<path d="M46.5276 44.0977V106.235L100 137.018V74.8811L46.5276 44.0977Z" fill="#58595B"/>
<path d="M100 87.9926L126.736 72.6009V59.4894L100 44.0977L73.2639 59.4894V90.2729L100 105.665L126.736 90.2729" stroke="white" stroke-width="4" stroke-linecap="round" stroke-linejoin="round"/>
<path d="M64.958 159.064C64.958 158.941 64.9687 158.797 64.99 158.632C65.0113 158.467 65.0513 158.28 65.11 158.072C65.1687 157.859 65.2567 157.621 65.374 157.36L66.358 157.704C66.2993 157.869 66.2487 158.021 66.206 158.16C66.1633 158.293 66.1313 158.419 66.11 158.536C66.0887 158.648 66.078 158.76 66.078 158.872C66.078 159.032 66.1127 159.181 66.182 159.32C66.2513 159.459 66.3553 159.579 66.494 159.68C66.6327 159.787 66.8033 159.869 67.006 159.928C67.214 159.987 67.454 160.016 67.726 160.016C68.0353 160.016 68.3073 159.987 68.542 159.928C68.782 159.875 68.982 159.803 69.142 159.712C69.3073 159.627 69.4327 159.536 69.518 159.44C69.6033 159.344 69.646 159.256 69.646 159.176C69.646 159.112 69.6007 159.056 69.51 159.008C69.4247 158.96 69.31 158.912 69.166 158.864C69.0273 158.811 68.878 158.752 68.718 158.688C68.5633 158.624 68.414 158.544 68.27 158.448C68.1313 158.352 68.0167 158.235 67.926 158.096C67.8407 157.957 67.798 157.789 67.798 157.592C67.798 157.389 67.8513 157.168 67.958 156.928C68.0647 156.683 68.2167 156.451 68.414 156.232C68.6113 156.008 68.846 155.827 69.118 155.688C69.3953 155.544 69.6993 155.472 70.03 155.472C70.2647 155.472 70.478 155.509 70.67 155.584C70.8673 155.659 71.0327 155.744 71.166 155.84L70.75 156.776C70.638 156.701 70.518 156.645 70.39 156.608C70.262 156.565 70.1393 156.544 70.022 156.544C69.8727 156.544 69.7287 156.573 69.59 156.632C69.4567 156.691 69.3367 156.768 69.23 156.864C69.1287 156.955 69.0487 157.053 68.99 157.16C68.9313 157.267 68.902 157.368 68.902 157.464C68.902 157.56 68.9473 157.645 69.038 157.72C69.134 157.789 69.2567 157.856 69.406 157.92C69.5553 157.979 69.7127 158.04 69.878 158.104C70.0433 158.168 70.2007 158.24 70.35 158.32C70.4993 158.4 70.6193 158.496 70.71 158.608C70.806 158.72 70.854 158.856 70.854 159.016C70.854 159.245 70.782 159.483 70.638 159.728C70.4993 159.979 70.2913 160.211 70.014 160.424C69.7367 160.637 69.3953 160.808 68.99 160.936C68.59 161.069 68.126 161.136 67.598 161.136C67.214 161.136 66.862 161.091 66.542 161C66.222 160.915 65.942 160.784 65.702 160.608C65.4673 160.437 65.2833 160.221 65.15 159.96C65.022 159.704 64.958 159.405 64.958 159.064ZM71.4483 161.128L71.0403 160.104C71.499 159.944 71.8697 159.768 72.1523 159.576C72.4403 159.384 72.651 159.179 72.7843 158.96C72.923 158.741 72.9923 158.515 72.9923 158.28C72.9923 158.131 72.971 157.976 72.9283 157.816C72.8857 157.651 72.8243 157.477 72.7443 157.296C72.6697 157.115 72.579 156.925 72.4723 156.728L73.5203 156.224C73.707 156.581 73.851 156.923 73.9523 157.248C74.059 157.573 74.1123 157.877 74.1123 158.16C74.1123 158.421 74.0777 158.672 74.0083 158.912C73.9443 159.152 73.843 159.376 73.7043 159.584C73.571 159.797 73.3977 159.997 73.1843 160.184C72.971 160.371 72.7203 160.541 72.4323 160.696C72.1443 160.856 71.8163 161 71.4483 161.128ZM75.0498 161.128L74.8178 160.008C75.1964 159.96 75.5271 159.901 75.8098 159.832C76.0924 159.768 76.3298 159.677 76.5218 159.56C76.7138 159.443 76.8578 159.283 76.9538 159.08C77.0498 158.872 77.0978 158.605 77.0978 158.28C77.0978 157.965 77.0498 157.715 76.9538 157.528C76.8578 157.341 76.7298 157.248 76.5698 157.248C76.4578 157.248 76.3644 157.288 76.2898 157.368C76.2151 157.443 76.1591 157.533 76.1218 157.64C76.0898 157.741 76.0738 157.832 76.0738 157.912C76.0738 157.96 76.0871 158.011 76.1138 158.064C76.1404 158.117 76.1991 158.163 76.2898 158.2C76.3804 158.237 76.5218 158.259 76.7138 158.264C76.9111 158.269 77.1778 158.251 77.5138 158.208H78.8578C79.0604 158.208 79.2044 158.261 79.2898 158.368C79.3804 158.469 79.4258 158.597 79.4258 158.752C79.4258 158.917 79.3698 159.056 79.2578 159.168C79.1458 159.275 78.9858 159.328 78.7778 159.328H76.5778C76.2418 159.328 75.9538 159.288 75.7138 159.208C75.4738 159.128 75.2898 159 75.1618 158.824C75.0338 158.643 74.9698 158.403 74.9698 158.104C74.9698 157.864 75.0098 157.624 75.0898 157.384C75.1751 157.144 75.2924 156.925 75.4418 156.728C75.5911 156.525 75.7644 156.365 75.9618 156.248C76.1644 156.125 76.3831 156.064 76.6178 156.064C76.9378 156.064 77.2178 156.163 77.4578 156.36C77.6978 156.557 77.8844 156.819 78.0178 157.144C78.1564 157.469 78.2258 157.824 78.2258 158.208C78.2258 158.811 78.0978 159.323 77.8418 159.744C77.5858 160.165 77.2204 160.491 76.7458 160.72C76.2711 160.955 75.7058 161.091 75.0498 161.128ZM78.7891 159.328L78.8691 158.208C79.0451 158.208 79.1891 158.195 79.3011 158.168C79.4131 158.136 79.5037 158.069 79.5731 157.968C79.6477 157.861 79.7117 157.704 79.7651 157.496C79.8237 157.283 79.8877 156.995 79.9571 156.632L80.9971 156.824C80.9757 156.941 80.9464 157.088 80.9091 157.264C80.8771 157.44 80.8611 157.592 80.8611 157.72C80.8611 157.821 80.8797 157.909 80.9171 157.984C80.9597 158.053 81.0291 158.109 81.1251 158.152C81.2264 158.189 81.3651 158.208 81.5411 158.208C81.6797 158.208 81.7971 158.195 81.8931 158.168C81.9944 158.136 82.0797 158.069 82.1491 157.968C82.2237 157.861 82.2877 157.699 82.3411 157.48C82.3997 157.256 82.4557 156.955 82.5091 156.576L83.5651 156.744C83.5437 156.867 83.5224 156.997 83.5011 157.136C83.4797 157.275 83.4611 157.403 83.4451 157.52C83.4291 157.637 83.4211 157.733 83.4211 157.808C83.4211 157.877 83.4397 157.944 83.4771 158.008C83.5197 158.067 83.5944 158.115 83.7011 158.152C83.8131 158.189 83.9677 158.208 84.1651 158.208C84.4051 158.208 84.5811 158.157 84.6931 158.056C84.8104 157.949 84.8691 157.789 84.8691 157.576C84.8691 157.453 84.8664 157.323 84.8611 157.184C84.8557 157.04 84.8451 156.88 84.8291 156.704C84.8184 156.523 84.7971 156.317 84.7651 156.088L85.7971 156.008C85.8344 156.467 85.8771 156.84 85.9251 157.128C85.9731 157.416 86.0371 157.64 86.1171 157.8C86.2024 157.955 86.3144 158.061 86.4531 158.12C86.5971 158.179 86.7837 158.208 87.0131 158.208C87.2157 158.208 87.3597 158.261 87.4451 158.368C87.5357 158.469 87.5811 158.597 87.5811 158.752C87.5811 158.917 87.5251 159.056 87.4131 159.168C87.3064 159.275 87.1464 159.328 86.9331 159.328C86.7891 159.328 86.6397 159.315 86.4851 159.288C86.3304 159.267 86.1811 159.221 86.0371 159.152C85.8931 159.077 85.7651 158.971 85.6531 158.832C85.5411 158.693 85.4531 158.509 85.3891 158.28L85.5331 158.328C85.4584 158.595 85.3571 158.8 85.2291 158.944C85.1011 159.088 84.9437 159.189 84.7571 159.248C84.5704 159.301 84.3464 159.328 84.0851 159.328C83.8451 159.328 83.6317 159.296 83.4451 159.232C83.2584 159.168 83.1091 159.064 82.9971 158.92C82.8904 158.771 82.8344 158.571 82.8291 158.32H83.1011C82.9944 158.619 82.8717 158.84 82.7331 158.984C82.5944 159.128 82.4264 159.221 82.2291 159.264C82.0317 159.307 81.7837 159.328 81.4851 159.328C81.3037 159.328 81.1251 159.309 80.9491 159.272C80.7731 159.229 80.6157 159.136 80.4771 158.992C80.3384 158.843 80.2371 158.608 80.1731 158.288L80.6051 158.272C80.4931 158.587 80.3464 158.819 80.1651 158.968C79.9891 159.117 79.7864 159.216 79.5571 159.264C79.3277 159.307 79.0717 159.328 78.7891 159.328ZM82.8931 154.376C82.7597 154.376 82.6424 154.325 82.5411 154.224C82.4451 154.123 82.3971 154.003 82.3971 153.864C82.3971 153.725 82.4451 153.608 82.5411 153.512C82.6424 153.416 82.7597 153.368 82.8931 153.368C83.0317 153.368 83.1491 153.416 83.2451 153.512C83.3411 153.608 83.3891 153.725 83.3891 153.864C83.3891 154.003 83.3411 154.123 83.2451 154.224C83.1491 154.325 83.0317 154.376 82.8931 154.376ZM82.2531 155.432C82.1197 155.432 82.0024 155.381 81.9011 155.28C81.8051 155.179 81.7571 155.059 81.7571 154.92C81.7571 154.781 81.8051 154.664 81.9011 154.568C82.0024 154.472 82.1197 154.424 82.2531 154.424C82.3917 154.424 82.5091 154.472 82.6051 154.568C82.7011 154.664 82.7491 154.781 82.7491 154.92C82.7491 155.059 82.7011 155.179 82.6051 155.28C82.5091 155.381 82.3917 155.432 82.2531 155.432ZM83.4931 155.432C83.3597 155.432 83.2424 155.381 83.1411 155.28C83.0451 155.179 82.9971 155.059 82.9971 154.92C82.9971 154.781 83.0451 154.664 83.1411 154.568C83.2424 154.472 83.3597 154.424 83.4931 154.424C83.6317 154.424 83.7491 154.472 83.8451 154.568C83.9411 154.664 83.9891 154.781 83.9891 154.92C83.9891 155.059 83.9411 155.179 83.8451 155.28C83.7491 155.381 83.6317 155.432 83.4931 155.432ZM86.9375 159.328L87.0175 158.208H88.1615C88.2735 158.208 88.3722 158.203 88.4575 158.192C88.5428 158.176 88.6122 158.152 88.6655 158.12C88.7242 158.088 88.7668 158.048 88.7935 158C88.8202 157.952 88.8335 157.896 88.8335 157.832C88.8335 157.768 88.7988 157.667 88.7295 157.528C88.6655 157.384 88.5242 157.211 88.3055 157.008C88.1882 156.901 88.0602 156.789 87.9215 156.672C87.7882 156.549 87.6602 156.435 87.5375 156.328C87.4148 156.216 87.3135 156.117 87.2335 156.032C87.1535 155.947 87.1135 155.885 87.1135 155.848C87.1135 155.768 87.1188 155.68 87.1295 155.584C87.1402 155.488 87.1562 155.4 87.1775 155.32C87.2042 155.24 87.2388 155.181 87.2815 155.144C87.3722 155.059 87.5055 154.96 87.6815 154.848C87.8628 154.731 88.0788 154.605 88.3295 154.472C88.5802 154.333 88.8602 154.189 89.1695 154.04C89.4842 153.885 89.8202 153.731 90.1775 153.576L90.6335 154.552C90.3402 154.68 90.0628 154.805 89.8015 154.928C89.5402 155.045 89.2948 155.163 89.0655 155.28C88.8415 155.392 88.6335 155.504 88.4415 155.616C88.2548 155.723 88.0895 155.829 87.9455 155.936L88.0495 155.344C88.5028 155.691 88.8628 156.003 89.1295 156.28C89.4015 156.557 89.6042 156.805 89.7375 157.024C89.8708 157.237 89.9588 157.429 90.0015 157.6C90.0442 157.765 90.0655 157.912 90.0655 158.04C90.0655 158.168 90.0335 158.307 89.9695 158.456C89.9108 158.6 89.8015 158.739 89.6415 158.872C89.4868 159.005 89.2682 159.115 88.9855 159.2C88.7028 159.285 88.3402 159.328 87.8975 159.328H86.9375ZM96.8699 159.328C96.4912 159.328 96.1632 159.28 95.8859 159.184C95.6139 159.083 95.4032 158.923 95.2539 158.704C95.1046 158.48 95.0192 158.181 94.9979 157.808L94.8539 154.584H95.9819L96.1179 157.416C96.1286 157.635 96.1632 157.803 96.2219 157.92C96.2859 158.032 96.3766 158.109 96.4939 158.152C96.6112 158.189 96.7632 158.208 96.9499 158.208C97.1526 158.208 97.2966 158.261 97.3819 158.368C97.4672 158.469 97.5099 158.597 97.5099 158.752C97.5099 158.917 97.4539 159.056 97.3419 159.168C97.2352 159.275 97.0779 159.328 96.8699 159.328ZM95.4059 158.584C95.0486 158.664 94.7046 158.701 94.3739 158.696C94.0432 158.685 93.7472 158.627 93.4859 158.52C93.2246 158.408 93.0166 158.248 92.8619 158.04C92.7126 157.832 92.6379 157.568 92.6379 157.248C92.6379 156.965 92.6992 156.709 92.8219 156.48C92.9499 156.245 93.1259 156.04 93.3499 155.864C93.5792 155.688 93.8459 155.539 94.1499 155.416C94.4539 155.293 94.7846 155.2 95.1419 155.136L95.2539 156.272C95.0246 156.283 94.8166 156.315 94.6299 156.368C94.4486 156.416 94.2912 156.48 94.1579 156.56C94.0299 156.64 93.9312 156.731 93.8619 156.832C93.7926 156.928 93.7579 157.032 93.7579 157.144C93.7579 157.235 93.7899 157.309 93.8539 157.368C93.9179 157.427 94.0032 157.475 94.1099 157.512C94.2166 157.544 94.3392 157.563 94.4779 157.568C94.6166 157.573 94.7579 157.565 94.9019 157.544C95.0512 157.523 95.1979 157.488 95.3419 157.44L95.4059 158.584ZM96.8672 159.328L96.9472 158.208C97.2672 158.208 97.5125 158.192 97.6832 158.16C97.8539 158.128 97.9712 158.069 98.0352 157.984C98.1045 157.893 98.1392 157.765 98.1392 157.6C98.1392 157.451 98.1179 157.272 98.0752 157.064C98.0379 156.856 97.9872 156.64 97.9232 156.416C97.8645 156.192 97.8005 155.987 97.7312 155.8L98.8352 155.496C98.9045 155.677 98.9712 155.888 99.0352 156.128C99.0992 156.368 99.1525 156.616 99.1952 156.872C99.2379 157.123 99.2592 157.365 99.2592 157.6C99.2592 157.963 99.2005 158.259 99.0832 158.488C98.9659 158.712 98.8005 158.885 98.5872 159.008C98.3792 159.131 98.1285 159.216 97.8352 159.264C97.5419 159.307 97.2192 159.328 96.8672 159.328ZM98.8432 161.184C98.6885 161.184 98.5552 161.128 98.4432 161.016C98.3365 160.909 98.2832 160.781 98.2832 160.632C98.2832 160.477 98.3365 160.344 98.4432 160.232C98.5552 160.12 98.6885 160.064 98.8432 160.064C98.9925 160.064 99.1205 160.12 99.2272 160.232C99.3339 160.344 99.3872 160.477 99.3872 160.632C99.3872 160.781 99.3339 160.909 99.2272 161.016C99.1205 161.128 98.9925 161.184 98.8432 161.184ZM97.4592 161.184C97.3045 161.184 97.1712 161.128 97.0592 161.016C96.9525 160.909 96.8992 160.781 96.8992 160.632C96.8992 160.477 96.9525 160.344 97.0592 160.232C97.1712 160.12 97.3045 160.064 97.4592 160.064C97.6085 160.064 97.7365 160.12 97.8432 160.232C97.9499 160.344 98.0032 160.477 98.0032 160.632C98.0032 160.781 97.9499 160.909 97.8432 161.016C97.7365 161.128 97.6085 161.184 97.4592 161.184ZM100.022 158.968L100.414 157.952C100.612 158.037 100.801 158.101 100.982 158.144C101.164 158.187 101.345 158.208 101.526 158.208C101.713 158.208 101.868 158.192 101.99 158.16C102.118 158.123 102.214 158.069 102.278 158C102.342 157.931 102.374 157.848 102.374 157.752C102.374 157.661 102.345 157.536 102.286 157.376C102.233 157.216 102.134 157.008 101.99 156.752C101.846 156.491 101.636 156.168 101.358 155.784L102.31 155.152C102.566 155.515 102.788 155.869 102.974 156.216C103.161 156.557 103.305 156.877 103.406 157.176C103.513 157.469 103.566 157.728 103.566 157.952C103.566 158.229 103.492 158.472 103.342 158.68C103.198 158.883 102.982 159.043 102.694 159.16C102.412 159.277 102.062 159.336 101.646 159.336C101.492 159.336 101.318 159.323 101.126 159.296C100.934 159.269 100.74 159.229 100.542 159.176C100.35 159.123 100.177 159.053 100.022 158.968ZM106.411 159.328C105.915 159.328 105.531 159.277 105.259 159.176C104.992 159.075 104.806 158.917 104.699 158.704C104.592 158.485 104.531 158.211 104.515 157.88L104.347 153.432H105.467L105.635 157.344C105.646 157.589 105.672 157.773 105.715 157.896C105.758 158.019 105.838 158.101 105.955 158.144C106.078 158.187 106.256 158.208 106.491 158.208C106.694 158.208 106.838 158.261 106.923 158.368C107.014 158.469 107.059 158.597 107.059 158.752C107.059 158.917 107.003 159.056 106.891 159.168C106.779 159.275 106.619 159.328 106.411 159.328ZM111.654 159.328C111.409 159.328 111.179 159.309 110.966 159.272C110.758 159.235 110.566 159.171 110.39 159.08C110.214 158.984 110.057 158.853 109.918 158.688C109.785 158.523 109.673 158.315 109.582 158.064L110.214 157.56C110.31 157.731 110.427 157.864 110.566 157.96C110.705 158.051 110.87 158.115 111.062 158.152C111.254 158.189 111.478 158.208 111.734 158.208C111.937 158.208 112.081 158.261 112.166 158.368C112.251 158.469 112.294 158.597 112.294 158.752C112.294 158.917 112.238 159.056 112.126 159.168C112.019 159.275 111.862 159.328 111.654 159.328ZM106.422 159.328L106.502 158.208C106.79 158.208 107.075 158.192 107.358 158.16C107.641 158.128 107.915 158.08 108.182 158.016C108.449 157.952 108.702 157.869 108.942 157.768C109.187 157.667 109.417 157.544 109.63 157.4C109.47 157.304 109.297 157.221 109.11 157.152C108.923 157.083 108.723 157.032 108.51 157C108.302 156.963 108.081 156.944 107.846 156.944C107.761 156.944 107.67 156.947 107.574 156.952C107.483 156.957 107.39 156.968 107.294 156.984C107.198 156.995 107.102 157.011 107.006 157.032L106.846 155.936C107.001 155.893 107.163 155.864 107.334 155.848C107.51 155.827 107.665 155.816 107.798 155.816C108.086 155.816 108.35 155.848 108.59 155.912C108.835 155.976 109.059 156.056 109.262 156.152C109.47 156.248 109.662 156.344 109.838 156.44C110.019 156.536 110.19 156.616 110.35 156.68C110.515 156.744 110.675 156.776 110.83 156.776H111.126L111.254 157.84C111.025 157.851 110.809 157.896 110.606 157.976C110.409 158.051 110.211 158.147 110.014 158.264C109.822 158.376 109.614 158.493 109.39 158.616C109.171 158.739 108.923 158.853 108.646 158.96C108.369 159.067 108.049 159.155 107.686 159.224C107.323 159.293 106.902 159.328 106.422 159.328ZM111.656 159.328L111.736 158.208C112.056 158.208 112.302 158.192 112.472 158.16C112.643 158.128 112.76 158.069 112.824 157.984C112.894 157.893 112.928 157.765 112.928 157.6C112.928 157.451 112.907 157.272 112.864 157.064C112.827 156.856 112.776 156.64 112.712 156.416C112.654 156.192 112.59 155.987 112.52 155.8L113.624 155.496C113.694 155.677 113.76 155.888 113.824 156.128C113.888 156.368 113.942 156.616 113.984 156.872C114.027 157.123 114.048 157.365 114.048 157.6C114.048 157.963 113.99 158.259 113.872 158.488C113.755 158.712 113.59 158.885 113.376 159.008C113.168 159.131 112.918 159.216 112.624 159.264C112.331 159.307 112.008 159.328 111.656 159.328ZM113.824 154.848C113.67 154.848 113.536 154.795 113.424 154.688C113.318 154.576 113.264 154.445 113.264 154.296C113.264 154.141 113.318 154.008 113.424 153.896C113.536 153.784 113.67 153.728 113.824 153.728C113.974 153.728 114.102 153.784 114.208 153.896C114.315 154.008 114.368 154.141 114.368 154.296C114.368 154.445 114.315 154.576 114.208 154.688C114.102 154.795 113.974 154.848 113.824 154.848ZM112.44 154.84C112.286 154.84 112.152 154.787 112.04 154.68C111.934 154.568 111.88 154.437 111.88 154.288C111.88 154.133 111.934 154 112.04 153.888C112.152 153.776 112.286 153.72 112.44 153.72C112.59 153.72 112.718 153.776 112.824 153.888C112.931 154 112.984 154.133 112.984 154.288C112.984 154.437 112.931 154.568 112.824 154.68C112.718 154.787 112.59 154.84 112.44 154.84ZM115.171 159.288L115.003 153.432H116.123L116.291 159.288H115.171ZM119.026 161.128L118.794 160.008C119.173 159.96 119.504 159.901 119.786 159.832C120.069 159.768 120.306 159.677 120.498 159.56C120.69 159.443 120.834 159.283 120.93 159.08C121.026 158.872 121.074 158.605 121.074 158.28C121.074 157.965 121.026 157.715 120.93 157.528C120.834 157.341 120.706 157.248 120.546 157.248C120.434 157.248 120.341 157.288 120.266 157.368C120.192 157.443 120.136 157.533 120.098 157.64C120.066 157.741 120.05 157.832 120.05 157.912C120.05 157.96 120.064 158.011 120.09 158.064C120.117 158.117 120.176 158.163 120.266 158.2C120.357 158.237 120.498 158.259 120.69 158.264C120.888 158.269 121.154 158.251 121.49 158.208H122.834C123.037 158.208 123.181 158.261 123.266 158.368C123.357 158.469 123.402 158.597 123.402 158.752C123.402 158.917 123.346 159.056 123.234 159.168C123.122 159.275 122.962 159.328 122.754 159.328H120.554C120.218 159.328 119.93 159.288 119.69 159.208C119.45 159.128 119.266 159 119.138 158.824C119.01 158.643 118.946 158.403 118.946 158.104C118.946 157.864 118.986 157.624 119.066 157.384C119.152 157.144 119.269 156.925 119.418 156.728C119.568 156.525 119.741 156.365 119.938 156.248C120.141 156.125 120.36 156.064 120.594 156.064C120.914 156.064 121.194 156.163 121.434 156.36C121.674 156.557 121.861 156.819 121.994 157.144C122.133 157.469 122.202 157.824 122.202 158.208C122.202 158.811 122.074 159.323 121.818 159.744C121.562 160.165 121.197 160.491 120.722 160.72C120.248 160.955 119.682 161.091 119.026 161.128ZM130.79 159.328C130.518 159.328 130.256 159.304 130.006 159.256C129.755 159.203 129.528 159.133 129.326 159.048C129.128 158.963 128.966 158.867 128.838 158.76L129.558 157.984C129.75 158.064 129.947 158.123 130.15 158.16C130.352 158.192 130.592 158.208 130.87 158.208C131.072 158.208 131.216 158.261 131.302 158.368C131.392 158.469 131.438 158.597 131.438 158.752C131.438 158.917 131.382 159.056 131.27 159.168C131.158 159.275 130.998 159.328 130.79 159.328ZM126.91 159.432C126.414 159.432 126 159.411 125.67 159.368C125.344 159.325 125.08 159.264 124.878 159.184C124.675 159.104 124.515 159.008 124.398 158.896C124.28 158.784 124.184 158.661 124.11 158.528L124.334 158.464C124.2 158.72 124.048 158.909 123.878 159.032C123.707 159.155 123.528 159.235 123.342 159.272C123.155 159.309 122.963 159.328 122.766 159.328L122.846 158.208C123.011 158.208 123.142 158.181 123.238 158.128C123.334 158.075 123.411 157.987 123.47 157.864C123.534 157.741 123.592 157.579 123.646 157.376C123.699 157.173 123.763 156.925 123.838 156.632L124.854 156.88C124.816 157.024 124.784 157.149 124.758 157.256C124.736 157.363 124.718 157.456 124.702 157.536C124.691 157.611 124.686 157.672 124.686 157.72C124.686 157.821 124.71 157.912 124.758 157.992C124.806 158.067 124.899 158.128 125.038 158.176C125.176 158.219 125.379 158.253 125.646 158.28C125.918 158.301 126.272 158.312 126.71 158.312C127.174 158.312 127.56 158.296 127.87 158.264C128.179 158.227 128.424 158.176 128.606 158.112C128.792 158.043 128.926 157.96 129.006 157.864C129.086 157.763 129.126 157.648 129.126 157.52C129.126 157.419 129.102 157.325 129.054 157.24C129.011 157.149 128.939 157.075 128.838 157.016C128.736 156.957 128.606 156.928 128.446 156.928C128.254 156.928 128.059 156.976 127.862 157.072C127.67 157.163 127.48 157.285 127.294 157.44C127.107 157.589 126.928 157.757 126.758 157.944C126.592 158.131 126.443 158.317 126.31 158.504L125.11 158.368C125.318 158.032 125.552 157.709 125.814 157.4C126.075 157.091 126.355 156.819 126.654 156.584C126.952 156.344 127.262 156.155 127.582 156.016C127.902 155.877 128.227 155.808 128.558 155.808C128.915 155.808 129.219 155.877 129.47 156.016C129.72 156.155 129.912 156.347 130.046 156.592C130.179 156.837 130.246 157.12 130.246 157.44C130.246 157.829 130.134 158.173 129.91 158.472C129.691 158.771 129.336 159.005 128.846 159.176C128.36 159.347 127.715 159.432 126.91 159.432ZM128.326 155.064C128.16 155.064 128.019 155.008 127.902 154.896C127.79 154.784 127.734 154.645 127.734 154.48C127.734 154.315 127.79 154.173 127.902 154.056C128.019 153.939 128.16 153.88 128.326 153.88C128.486 153.88 128.622 153.939 128.734 154.056C128.851 154.173 128.91 154.315 128.91 154.48C128.91 154.645 128.851 154.784 128.734 154.896C128.622 155.008 128.486 155.064 128.326 155.064ZM130.797 159.328L130.877 158.208C131.128 158.208 131.32 158.205 131.453 158.2C131.592 158.195 131.696 158.189 131.765 158.184C131.834 158.173 131.893 158.165 131.941 158.16C131.888 158.107 131.818 158.029 131.733 157.928C131.648 157.827 131.57 157.696 131.501 157.536C131.437 157.376 131.405 157.184 131.405 156.96C131.405 156.635 131.488 156.349 131.653 156.104C131.824 155.859 132.053 155.667 132.341 155.528C132.629 155.389 132.952 155.32 133.309 155.32C133.48 155.32 133.637 155.331 133.781 155.352C133.93 155.373 134.08 155.405 134.229 155.448L134.053 156.512C133.946 156.485 133.834 156.464 133.717 156.448C133.6 156.432 133.496 156.424 133.405 156.424C133.229 156.424 133.074 156.453 132.941 156.512C132.813 156.565 132.712 156.643 132.637 156.744C132.568 156.84 132.533 156.957 132.533 157.096C132.533 157.187 132.549 157.272 132.581 157.352C132.618 157.432 132.664 157.504 132.717 157.568C132.77 157.632 132.829 157.688 132.893 157.736C132.957 157.784 133.018 157.824 133.077 157.856C133.141 157.883 133.194 157.901 133.237 157.912C133.37 157.875 133.485 157.843 133.581 157.816C133.682 157.784 133.778 157.755 133.869 157.728C133.965 157.696 134.069 157.656 134.181 157.608C134.293 157.56 134.432 157.501 134.597 157.432L134.957 158.488C134.509 158.707 134.072 158.877 133.645 159C133.218 159.123 132.776 159.208 132.317 159.256C131.858 159.304 131.352 159.328 130.797 159.328Z" fill="#292952"/>
<path d="M62.1533 183.097C62.1533 182.975 62.164 182.831 62.1853 182.665C62.2067 182.5 62.2467 182.313 62.3053 182.105C62.364 181.892 62.452 181.655 62.5693 181.393L63.5533 181.737C63.4947 181.903 63.444 182.055 63.4013 182.193C63.3587 182.327 63.3267 182.452 63.3053 182.569C63.284 182.681 63.2733 182.793 63.2733 182.905C63.2733 183.065 63.308 183.215 63.3773 183.353C63.4467 183.492 63.5507 183.612 63.6893 183.713C63.828 183.82 63.9987 183.903 64.2013 183.961C64.4093 184.02 64.6493 184.049 64.9213 184.049C65.2307 184.049 65.5027 184.02 65.7373 183.961C65.9773 183.908 66.1773 183.836 66.3373 183.745C66.5027 183.66 66.628 183.569 66.7133 183.473C66.7987 183.377 66.8413 183.289 66.8413 183.209C66.8413 183.145 66.796 183.089 66.7053 183.041C66.62 182.993 66.5053 182.945 66.3613 182.897C66.2227 182.844 66.0733 182.785 65.9133 182.721C65.7587 182.657 65.6093 182.577 65.4653 182.481C65.3267 182.385 65.212 182.268 65.1213 182.129C65.036 181.991 64.9933 181.823 64.9933 181.625C64.9933 181.423 65.0467 181.201 65.1533 180.961C65.26 180.716 65.412 180.484 65.6093 180.265C65.8067 180.041 66.0413 179.86 66.3133 179.721C66.5907 179.577 66.8947 179.505 67.2253 179.505C67.46 179.505 67.6733 179.543 67.8653 179.617C68.0627 179.692 68.228 179.777 68.3613 179.873L67.9453 180.809C67.8333 180.735 67.7133 180.679 67.5853 180.641C67.4573 180.599 67.3347 180.577 67.2173 180.577C67.068 180.577 66.924 180.607 66.7853 180.665C66.652 180.724 66.532 180.801 66.4253 180.897C66.324 180.988 66.244 181.087 66.1853 181.193C66.1267 181.3 66.0973 181.401 66.0973 181.497C66.0973 181.593 66.1427 181.679 66.2333 181.753C66.3293 181.823 66.452 181.889 66.6013 181.953C66.7507 182.012 66.908 182.073 67.0733 182.137C67.2387 182.201 67.396 182.273 67.5453 182.353C67.6947 182.433 67.8147 182.529 67.9053 182.641C68.0013 182.753 68.0493 182.889 68.0493 183.049C68.0493 183.279 67.9773 183.516 67.8333 183.761C67.6947 184.012 67.4867 184.244 67.2093 184.457C66.932 184.671 66.5907 184.841 66.1853 184.969C65.7853 185.103 65.3213 185.169 64.7933 185.169C64.4093 185.169 64.0573 185.124 63.7373 185.033C63.4173 184.948 63.1373 184.817 62.8973 184.641C62.6627 184.471 62.4787 184.255 62.3453 183.993C62.2173 183.737 62.1533 183.439 62.1533 183.097ZM68.6436 185.161L68.2356 184.137C68.6943 183.977 69.065 183.801 69.3476 183.609C69.6356 183.417 69.8463 183.212 69.9796 182.993C70.1183 182.775 70.1876 182.548 70.1876 182.313C70.1876 182.164 70.1663 182.009 70.1236 181.849C70.081 181.684 70.0196 181.511 69.9396 181.329C69.865 181.148 69.7743 180.959 69.6676 180.761L70.7156 180.257C70.9023 180.615 71.0463 180.956 71.1476 181.281C71.2543 181.607 71.3076 181.911 71.3076 182.193C71.3076 182.455 71.273 182.705 71.2036 182.945C71.1396 183.185 71.0383 183.409 70.8996 183.617C70.7663 183.831 70.593 184.031 70.3796 184.217C70.1663 184.404 69.9156 184.575 69.6276 184.729C69.3396 184.889 69.0116 185.033 68.6436 185.161ZM70.4116 179.441C70.2463 179.441 70.105 179.385 69.9876 179.273C69.8756 179.161 69.8196 179.023 69.8196 178.857C69.8196 178.692 69.8756 178.551 69.9876 178.433C70.105 178.316 70.2463 178.257 70.4116 178.257C70.5716 178.257 70.7076 178.316 70.8196 178.433C70.937 178.551 70.9956 178.692 70.9956 178.857C70.9956 179.023 70.937 179.161 70.8196 179.273C70.7076 179.385 70.5716 179.441 70.4116 179.441ZM74.3251 183.361C73.8291 183.361 73.4451 183.311 73.1731 183.209C72.9064 183.108 72.7197 182.951 72.6131 182.737C72.5064 182.519 72.4451 182.244 72.4291 181.913L72.2611 177.465H73.3811L73.5491 181.377C73.5597 181.623 73.5864 181.807 73.6291 181.929C73.6717 182.052 73.7517 182.135 73.8691 182.177C73.9917 182.22 74.1704 182.241 74.4051 182.241C74.6077 182.241 74.7517 182.295 74.8371 182.401C74.9277 182.503 74.9731 182.631 74.9731 182.785C74.9731 182.951 74.9171 183.089 74.8051 183.201C74.6931 183.308 74.5331 183.361 74.3251 183.361ZM79.568 183.361C79.3226 183.361 79.0933 183.343 78.88 183.305C78.672 183.268 78.48 183.204 78.304 183.113C78.128 183.017 77.9706 182.887 77.832 182.721C77.6986 182.556 77.5866 182.348 77.496 182.097L78.128 181.593C78.224 181.764 78.3413 181.897 78.48 181.993C78.6186 182.084 78.784 182.148 78.976 182.185C79.168 182.223 79.392 182.241 79.648 182.241C79.8506 182.241 79.9946 182.295 80.08 182.401C80.1653 182.503 80.208 182.631 80.208 182.785C80.208 182.951 80.152 183.089 80.04 183.201C79.9333 183.308 79.776 183.361 79.568 183.361ZM74.336 183.361L74.416 182.241C74.704 182.241 74.9893 182.225 75.272 182.193C75.5546 182.161 75.8293 182.113 76.096 182.049C76.3626 181.985 76.616 181.903 76.856 181.801C77.1013 181.7 77.3306 181.577 77.544 181.433C77.384 181.337 77.2106 181.255 77.024 181.185C76.8373 181.116 76.6373 181.065 76.424 181.033C76.216 180.996 75.9946 180.977 75.76 180.977C75.6746 180.977 75.584 180.98 75.488 180.985C75.3973 180.991 75.304 181.001 75.208 181.017C75.112 181.028 75.016 181.044 74.92 181.065L74.76 179.969C74.9146 179.927 75.0773 179.897 75.248 179.881C75.424 179.86 75.5786 179.849 75.712 179.849C76 179.849 76.264 179.881 76.504 179.945C76.7493 180.009 76.9733 180.089 77.176 180.185C77.384 180.281 77.576 180.377 77.752 180.473C77.9333 180.569 78.104 180.649 78.264 180.713C78.4293 180.777 78.5893 180.809 78.744 180.809H79.04L79.168 181.873C78.9386 181.884 78.7226 181.929 78.52 182.009C78.3226 182.084 78.1253 182.18 77.928 182.297C77.736 182.409 77.528 182.527 77.304 182.649C77.0853 182.772 76.8373 182.887 76.56 182.993C76.2826 183.1 75.9626 183.188 75.6 183.257C75.2373 183.327 74.816 183.361 74.336 183.361ZM76.6 185.161C76.4453 185.161 76.312 185.108 76.2 185.001C76.0933 184.895 76.04 184.764 76.04 184.609C76.04 184.455 76.0933 184.319 76.2 184.201C76.312 184.089 76.4453 184.033 76.6 184.033C76.7546 184.033 76.8853 184.089 76.992 184.201C77.104 184.319 77.16 184.455 77.16 184.609C77.16 184.764 77.104 184.895 76.992 185.001C76.8853 185.108 76.7546 185.161 76.6 185.161ZM79.5703 183.361L79.6503 182.241C79.773 182.241 79.877 182.212 79.9623 182.153C80.053 182.089 80.1463 181.985 80.2423 181.841C80.3383 181.692 80.4503 181.492 80.5783 181.241C80.7383 180.921 80.9037 180.671 81.0743 180.489C81.2503 180.308 81.429 180.18 81.6103 180.105C81.797 180.025 81.9837 179.985 82.1703 179.985C82.405 179.985 82.6237 180.036 82.8263 180.137C83.029 180.239 83.205 180.377 83.3543 180.553C83.5037 180.724 83.6183 180.921 83.6983 181.145C83.7837 181.364 83.8263 181.591 83.8263 181.825C83.8263 182.108 83.765 182.364 83.6423 182.593C83.525 182.817 83.3597 182.996 83.1463 183.129C82.9383 183.257 82.6983 183.321 82.4263 183.321C82.197 183.321 81.9303 183.281 81.6263 183.201C81.3223 183.121 81.0023 182.953 80.6663 182.697L81.0743 181.729C81.3143 181.895 81.5383 182.015 81.7463 182.089C81.9597 182.164 82.1357 182.201 82.2743 182.201C82.381 182.201 82.469 182.191 82.5383 182.169C82.6077 182.148 82.6583 182.113 82.6903 182.065C82.7223 182.017 82.7383 181.953 82.7383 181.873C82.7383 181.761 82.7117 181.647 82.6583 181.529C82.605 181.412 82.533 181.313 82.4423 181.233C82.357 181.148 82.2557 181.105 82.1383 181.105C82.0263 181.105 81.9303 181.148 81.8503 181.233C81.7757 181.313 81.701 181.431 81.6263 181.585C81.557 181.735 81.4717 181.911 81.3703 182.113C81.2477 182.359 81.1277 182.564 81.0103 182.729C80.893 182.889 80.7677 183.017 80.6343 183.113C80.5063 183.204 80.3543 183.268 80.1783 183.305C80.0077 183.343 79.805 183.361 79.5703 183.361ZM86.2861 183.097C86.2861 182.975 86.2968 182.831 86.3181 182.665C86.3395 182.5 86.3795 182.313 86.4381 182.105C86.4968 181.892 86.5848 181.655 86.7021 181.393L87.6861 181.737C87.6275 181.903 87.5768 182.055 87.5341 182.193C87.4915 182.327 87.4595 182.452 87.4381 182.569C87.4168 182.681 87.4061 182.793 87.4061 182.905C87.4061 183.065 87.4408 183.215 87.5101 183.353C87.5795 183.492 87.6835 183.612 87.8221 183.713C87.9608 183.82 88.1315 183.903 88.3341 183.961C88.5421 184.02 88.7821 184.049 89.0541 184.049C89.3635 184.049 89.6355 184.02 89.8701 183.961C90.1101 183.908 90.3101 183.836 90.4701 183.745C90.6355 183.66 90.7608 183.569 90.8461 183.473C90.9315 183.377 90.9741 183.289 90.9741 183.209C90.9741 183.145 90.9288 183.089 90.8381 183.041C90.7528 182.993 90.6381 182.945 90.4941 182.897C90.3555 182.844 90.2061 182.785 90.0461 182.721C89.8915 182.657 89.7421 182.577 89.5981 182.481C89.4595 182.385 89.3448 182.268 89.2541 182.129C89.1688 181.991 89.1261 181.823 89.1261 181.625C89.1261 181.423 89.1795 181.201 89.2861 180.961C89.3928 180.716 89.5448 180.484 89.7421 180.265C89.9395 180.041 90.1741 179.86 90.4461 179.721C90.7235 179.577 91.0275 179.505 91.3581 179.505C91.5928 179.505 91.8061 179.543 91.9981 179.617C92.1955 179.692 92.3608 179.777 92.4941 179.873L92.0781 180.809C91.9661 180.735 91.8461 180.679 91.7181 180.641C91.5901 180.599 91.4675 180.577 91.3501 180.577C91.2008 180.577 91.0568 180.607 90.9181 180.665C90.7848 180.724 90.6648 180.801 90.5581 180.897C90.4568 180.988 90.3768 181.087 90.3181 181.193C90.2595 181.3 90.2301 181.401 90.2301 181.497C90.2301 181.593 90.2755 181.679 90.3661 181.753C90.4621 181.823 90.5848 181.889 90.7341 181.953C90.8835 182.012 91.0408 182.073 91.2061 182.137C91.3715 182.201 91.5288 182.273 91.6781 182.353C91.8275 182.433 91.9475 182.529 92.0381 182.641C92.1341 182.753 92.1821 182.889 92.1821 183.049C92.1821 183.279 92.1101 183.516 91.9661 183.761C91.8275 184.012 91.6195 184.244 91.3421 184.457C91.0648 184.671 90.7235 184.841 90.3181 184.969C89.9181 185.103 89.4541 185.169 88.9261 185.169C88.5421 185.169 88.1901 185.124 87.8701 185.033C87.5501 184.948 87.2701 184.817 87.0301 184.641C86.7955 184.471 86.6115 184.255 86.4781 183.993C86.3501 183.737 86.2861 183.439 86.2861 183.097ZM95.1845 183.361C94.6885 183.361 94.3045 183.311 94.0325 183.209C93.7658 183.108 93.5791 182.951 93.4725 182.737C93.3658 182.519 93.3045 182.244 93.2885 181.913L93.1205 177.465H94.2405L94.4085 181.377C94.4191 181.623 94.4458 181.807 94.4885 181.929C94.5311 182.052 94.6111 182.135 94.7285 182.177C94.8511 182.22 95.0298 182.241 95.2645 182.241C95.4671 182.241 95.6111 182.295 95.6965 182.401C95.7871 182.503 95.8325 182.631 95.8325 182.785C95.8325 182.951 95.7765 183.089 95.6645 183.201C95.5525 183.308 95.3925 183.361 95.1845 183.361ZM98.4513 183.385C98.2113 183.385 97.9633 183.356 97.7073 183.297C97.4567 183.239 97.214 183.151 96.9793 183.033C96.7447 182.916 96.534 182.769 96.3473 182.593C96.1607 182.417 96.0113 182.215 95.8993 181.985C95.7927 181.751 95.7393 181.487 95.7393 181.193C95.7393 180.953 95.79 180.732 95.8913 180.529C95.9927 180.327 96.142 180.164 96.3393 180.041C96.542 179.913 96.7873 179.849 97.0753 179.849C97.3473 179.849 97.582 179.916 97.7793 180.049C97.982 180.177 98.1393 180.345 98.2513 180.553C98.3633 180.756 98.4193 180.969 98.4193 181.193C98.4193 181.551 98.3313 181.865 98.1553 182.137C97.9793 182.404 97.7367 182.628 97.4273 182.809C97.1233 182.991 96.7793 183.129 96.3953 183.225C96.0113 183.316 95.6113 183.361 95.1953 183.361L95.2753 182.241C95.5793 182.241 95.8433 182.233 96.0673 182.217C96.2967 182.201 96.494 182.167 96.6593 182.113C96.8247 182.06 96.9687 181.98 97.0913 181.873C97.214 181.767 97.3073 181.649 97.3713 181.521C97.4407 181.388 97.4753 181.257 97.4753 181.129C97.4753 181.044 97.462 180.964 97.4353 180.889C97.414 180.815 97.3767 180.753 97.3233 180.705C97.2753 180.652 97.2113 180.625 97.1313 180.625C97.046 180.625 96.974 180.652 96.9153 180.705C96.862 180.753 96.8193 180.817 96.7873 180.897C96.7607 180.977 96.7473 181.063 96.7473 181.153C96.7473 181.34 96.7953 181.508 96.8913 181.657C96.9927 181.807 97.126 181.932 97.2913 182.033C97.4567 182.135 97.638 182.212 97.8353 182.265C98.038 182.319 98.2433 182.345 98.4513 182.345C98.6167 182.345 98.734 182.319 98.8033 182.265C98.8727 182.212 98.9073 182.14 98.9073 182.049C98.9073 181.985 98.8913 181.919 98.8593 181.849C98.8327 181.775 98.7713 181.684 98.6753 181.577C98.5793 181.471 98.4327 181.34 98.2353 181.185C98.038 181.025 97.774 180.828 97.4433 180.593C97.1127 180.359 96.6967 180.073 96.1953 179.737L96.8113 178.865C97.3767 179.265 97.8487 179.615 98.2273 179.913C98.6113 180.212 98.9207 180.473 99.1553 180.697C99.39 180.921 99.5687 181.119 99.6913 181.289C99.8193 181.455 99.9047 181.607 99.9473 181.745C99.99 181.884 100.011 182.023 100.011 182.161C100.011 182.417 99.95 182.636 99.8273 182.817C99.7047 182.999 99.526 183.14 99.2913 183.241C99.062 183.337 98.782 183.385 98.4513 183.385ZM100.128 185.161L99.72 184.137C100.179 183.977 100.549 183.801 100.832 183.609C101.12 183.417 101.331 183.212 101.464 182.993C101.603 182.775 101.672 182.548 101.672 182.313C101.672 182.164 101.651 182.009 101.608 181.849C101.565 181.684 101.504 181.511 101.424 181.329C101.349 181.148 101.259 180.959 101.152 180.761L102.2 180.257C102.387 180.615 102.531 180.956 102.632 181.281C102.739 181.607 102.792 181.911 102.792 182.193C102.792 182.455 102.757 182.705 102.688 182.945C102.624 183.185 102.523 183.409 102.384 183.617C102.251 183.831 102.077 184.031 101.864 184.217C101.651 184.404 101.4 184.575 101.112 184.729C100.824 184.889 100.496 185.033 100.128 185.161ZM105.809 183.361C105.313 183.361 104.929 183.311 104.657 183.209C104.391 183.108 104.204 182.951 104.097 182.737C103.991 182.519 103.929 182.244 103.913 181.913L103.745 177.465H104.865L105.033 181.377C105.044 181.623 105.071 181.807 105.113 181.929C105.156 182.052 105.236 182.135 105.353 182.177C105.476 182.22 105.655 182.241 105.889 182.241C106.092 182.241 106.236 182.295 106.321 182.401C106.412 182.503 106.457 182.631 106.457 182.785C106.457 182.951 106.401 183.089 106.289 183.201C106.177 183.308 106.017 183.361 105.809 183.361ZM105.82 183.361L105.9 182.241H107.044C107.156 182.241 107.255 182.236 107.34 182.225C107.426 182.209 107.495 182.185 107.548 182.153C107.607 182.121 107.65 182.081 107.676 182.033C107.703 181.985 107.716 181.929 107.716 181.865C107.716 181.801 107.682 181.7 107.612 181.561C107.548 181.417 107.407 181.244 107.188 181.041C107.071 180.935 106.943 180.823 106.804 180.705C106.671 180.583 106.543 180.468 106.42 180.361C106.298 180.249 106.196 180.151 106.116 180.065C106.036 179.98 105.996 179.919 105.996 179.881C105.996 179.801 106.002 179.713 106.012 179.617C106.023 179.521 106.039 179.433 106.06 179.353C106.087 179.273 106.122 179.215 106.164 179.177C106.255 179.092 106.388 178.993 106.564 178.881C106.746 178.764 106.962 178.639 107.212 178.505C107.463 178.367 107.743 178.223 108.052 178.073C108.367 177.919 108.703 177.764 109.06 177.609L109.516 178.585C109.223 178.713 108.946 178.839 108.684 178.961C108.423 179.079 108.178 179.196 107.948 179.313C107.724 179.425 107.516 179.537 107.324 179.649C107.138 179.756 106.972 179.863 106.828 179.969L106.932 179.377C107.386 179.724 107.746 180.036 108.012 180.313C108.284 180.591 108.487 180.839 108.62 181.057C108.754 181.271 108.842 181.463 108.884 181.633C108.927 181.799 108.948 181.945 108.948 182.073C108.948 182.201 108.916 182.34 108.852 182.489C108.794 182.633 108.684 182.772 108.524 182.905C108.37 183.039 108.151 183.148 107.868 183.233C107.586 183.319 107.223 183.361 106.78 183.361H105.82ZM111.761 185.161L111.529 184.041C111.907 183.993 112.238 183.935 112.521 183.865C112.803 183.801 113.041 183.711 113.233 183.593C113.425 183.476 113.569 183.316 113.665 183.113C113.761 182.905 113.809 182.639 113.809 182.313C113.809 182.196 113.798 182.079 113.777 181.961C113.755 181.839 113.723 181.727 113.681 181.625C113.638 181.524 113.582 181.441 113.513 181.377C113.449 181.313 113.371 181.281 113.281 181.281C113.185 181.281 113.099 181.316 113.025 181.385C112.95 181.449 112.891 181.532 112.849 181.633C112.806 181.729 112.785 181.828 112.785 181.929C112.785 182.004 112.803 182.068 112.841 182.121C112.878 182.169 112.934 182.207 113.009 182.233C113.083 182.255 113.177 182.265 113.289 182.265C113.417 182.265 113.547 182.252 113.681 182.225C113.819 182.193 113.945 182.151 114.057 182.097L114.089 182.969C113.961 183.071 113.814 183.161 113.649 183.241C113.483 183.316 113.283 183.353 113.049 183.353C112.857 183.353 112.678 183.332 112.513 183.289C112.347 183.241 112.201 183.169 112.073 183.073C111.95 182.977 111.854 182.855 111.785 182.705C111.715 182.551 111.681 182.367 111.681 182.153C111.681 181.892 111.723 181.639 111.809 181.393C111.894 181.148 112.011 180.929 112.161 180.737C112.315 180.54 112.491 180.385 112.689 180.273C112.891 180.156 113.105 180.097 113.329 180.097C113.595 180.097 113.827 180.164 114.025 180.297C114.227 180.431 114.395 180.607 114.529 180.825C114.662 181.039 114.763 181.271 114.833 181.521C114.902 181.772 114.937 182.012 114.937 182.241C114.937 182.844 114.809 183.356 114.553 183.777C114.297 184.199 113.931 184.524 113.457 184.753C112.982 184.988 112.417 185.124 111.761 185.161ZM120.541 183.489L120.749 182.369C121.133 182.369 121.501 182.351 121.853 182.313C122.21 182.276 122.549 182.201 122.869 182.089C123.194 181.977 123.498 181.812 123.781 181.593C124.063 181.375 124.319 181.081 124.549 180.713L125.445 181.121C125.413 181.223 125.386 181.321 125.365 181.417C125.343 181.508 125.333 181.583 125.333 181.641C125.333 181.764 125.362 181.871 125.421 181.961C125.485 182.052 125.591 182.121 125.741 182.169C125.89 182.217 126.095 182.241 126.357 182.241C126.559 182.241 126.703 182.295 126.789 182.401C126.874 182.503 126.917 182.631 126.917 182.785C126.917 182.951 126.861 183.089 126.749 183.201C126.642 183.308 126.485 183.361 126.277 183.361C125.909 183.361 125.589 183.311 125.317 183.209C125.05 183.108 124.839 182.967 124.685 182.785C124.535 182.599 124.447 182.385 124.421 182.145L124.741 182.177C124.549 182.407 124.309 182.604 124.021 182.769C123.738 182.935 123.415 183.071 123.053 183.177C122.695 183.284 122.303 183.361 121.877 183.409C121.455 183.463 121.01 183.489 120.541 183.489ZM120.533 183.489C119.957 183.489 119.469 183.444 119.069 183.353C118.674 183.268 118.351 183.145 118.101 182.985C117.855 182.82 117.677 182.628 117.565 182.409C117.453 182.191 117.397 181.951 117.397 181.689C117.397 181.519 117.41 181.348 117.437 181.177C117.469 181.001 117.506 180.831 117.549 180.665C117.597 180.5 117.639 180.351 117.677 180.217L118.677 180.449C118.655 180.545 118.631 180.649 118.605 180.761C118.578 180.873 118.557 180.983 118.541 181.089C118.525 181.191 118.517 181.284 118.517 181.369C118.517 181.567 118.586 181.743 118.725 181.897C118.869 182.047 119.103 182.164 119.429 182.249C119.754 182.329 120.191 182.369 120.741 182.369L120.901 183.233L120.533 183.489ZM121.109 185.361C120.954 185.361 120.821 185.308 120.709 185.201C120.602 185.095 120.549 184.964 120.549 184.809C120.549 184.655 120.602 184.519 120.709 184.401C120.821 184.289 120.954 184.233 121.109 184.233C121.263 184.233 121.394 184.289 121.501 184.401C121.613 184.519 121.669 184.655 121.669 184.809C121.669 184.964 121.613 185.095 121.501 185.201C121.394 185.308 121.263 185.361 121.109 185.361ZM126.273 183.361L126.353 182.241C126.529 182.241 126.673 182.228 126.785 182.201C126.897 182.169 126.988 182.103 127.057 182.001C127.132 181.895 127.196 181.737 127.249 181.529C127.308 181.316 127.372 181.028 127.441 180.665L128.481 180.857C128.46 180.975 128.431 181.121 128.393 181.297C128.361 181.473 128.345 181.625 128.345 181.753C128.345 181.855 128.364 181.943 128.401 182.017C128.444 182.087 128.513 182.143 128.609 182.185C128.711 182.223 128.849 182.241 129.025 182.241C129.164 182.241 129.281 182.228 129.377 182.201C129.479 182.169 129.564 182.103 129.633 182.001C129.708 181.895 129.772 181.732 129.825 181.513C129.884 181.289 129.94 180.988 129.993 180.609L131.049 180.777C131.028 180.9 131.007 181.031 130.985 181.169C130.964 181.308 130.945 181.436 130.929 181.553C130.913 181.671 130.905 181.767 130.905 181.841C130.905 181.911 130.924 181.977 130.961 182.041C131.004 182.1 131.079 182.148 131.185 182.185C131.297 182.223 131.452 182.241 131.649 182.241C131.889 182.241 132.065 182.191 132.177 182.089C132.295 181.983 132.353 181.823 132.353 181.609C132.353 181.487 132.351 181.356 132.345 181.217C132.34 181.073 132.329 180.913 132.313 180.737C132.303 180.556 132.281 180.351 132.249 180.121L133.281 180.041C133.319 180.5 133.361 180.873 133.409 181.161C133.457 181.449 133.521 181.673 133.601 181.833C133.687 181.988 133.799 182.095 133.937 182.153C134.081 182.212 134.268 182.241 134.497 182.241C134.7 182.241 134.844 182.295 134.929 182.401C135.02 182.503 135.065 182.631 135.065 182.785C135.065 182.951 135.009 183.089 134.897 183.201C134.791 183.308 134.631 183.361 134.417 183.361C134.273 183.361 134.124 183.348 133.969 183.321C133.815 183.3 133.665 183.255 133.521 183.185C133.377 183.111 133.249 183.004 133.137 182.865C133.025 182.727 132.937 182.543 132.873 182.313L133.017 182.361C132.943 182.628 132.841 182.833 132.713 182.977C132.585 183.121 132.428 183.223 132.241 183.281C132.055 183.335 131.831 183.361 131.569 183.361C131.329 183.361 131.116 183.329 130.929 183.265C130.743 183.201 130.593 183.097 130.481 182.953C130.375 182.804 130.319 182.604 130.313 182.353H130.585C130.479 182.652 130.356 182.873 130.217 183.017C130.079 183.161 129.911 183.255 129.713 183.297C129.516 183.34 129.268 183.361 128.969 183.361C128.788 183.361 128.609 183.343 128.433 183.305C128.257 183.263 128.1 183.169 127.961 183.025C127.823 182.876 127.721 182.641 127.657 182.321L128.089 182.305C127.977 182.62 127.831 182.852 127.649 183.001C127.473 183.151 127.271 183.249 127.041 183.297C126.812 183.34 126.556 183.361 126.273 183.361ZM134.422 183.361L134.502 182.241H135.646C135.758 182.241 135.857 182.236 135.942 182.225C136.027 182.209 136.097 182.185 136.15 182.153C136.209 182.121 136.251 182.081 136.278 182.033C136.305 181.985 136.318 181.929 136.318 181.865C136.318 181.801 136.283 181.7 136.214 181.561C136.15 181.417 136.009 181.244 135.79 181.041C135.673 180.935 135.545 180.823 135.406 180.705C135.273 180.583 135.145 180.468 135.022 180.361C134.899 180.249 134.798 180.151 134.718 180.065C134.638 179.98 134.598 179.919 134.598 179.881C134.598 179.801 134.603 179.713 134.614 179.617C134.625 179.521 134.641 179.433 134.662 179.353C134.689 179.273 134.723 179.215 134.766 179.177C134.857 179.092 134.99 178.993 135.166 178.881C135.347 178.764 135.563 178.639 135.814 178.505C136.065 178.367 136.345 178.223 136.654 178.073C136.969 177.919 137.305 177.764 137.662 177.609L138.118 178.585C137.825 178.713 137.547 178.839 137.286 178.961C137.025 179.079 136.779 179.196 136.55 179.313C136.326 179.425 136.118 179.537 135.926 179.649C135.739 179.756 135.574 179.863 135.43 179.969L135.534 179.377C135.987 179.724 136.347 180.036 136.614 180.313C136.886 180.591 137.089 180.839 137.222 181.057C137.355 181.271 137.443 181.463 137.486 181.633C137.529 181.799 137.55 181.945 137.55 182.073C137.55 182.201 137.518 182.34 137.454 182.489C137.395 182.633 137.286 182.772 137.126 182.905C136.971 183.039 136.753 183.148 136.47 183.233C136.187 183.319 135.825 183.361 135.382 183.361H134.422Z" fill="#292952"/>
</svg>
