<svg width="30" height="46" viewBox="0 0 30 46" fill="none" xmlns="http://www.w3.org/2000/svg">
<path d="M23.2333 19.0306L24.5938 18.7878C27.565 18.2575 29.5186 15.3935 28.923 12.4409L28.1283 8.50055C27.796 6.85323 26.7102 5.45599 25.1941 4.72462L19.2731 1.86846C18.2528 1.37626 17.1027 1.21796 15.987 1.41612L5.14063 3.34235C2.19046 3.86628 0.237001 6.69322 0.795177 9.63085L2.26626 17.373C2.81598 20.2661 5.59776 22.1782 8.50278 21.6597L19.1693 19.756" stroke="#FBA904" stroke-linecap="round" stroke-linejoin="round"/>
<path d="M15.6033 8.00729L7.61427 9.45373C6.71688 9.61621 6.12 10.472 6.27908 11.3681L7.10263 16.0069C7.26225 16.906 8.12238 17.5056 9.02338 17.3458L17.1507 15.9044C18.0692 15.7415 18.6717 14.8543 18.4829 13.9427L17.521 9.2989C17.3391 8.42038 16.4879 7.84712 15.6033 8.00729Z" fill="#FDDD9B" stroke="#FBA904" stroke-linecap="round" stroke-linejoin="round"/>
<path d="M7.63323 21.9165C7.63323 21.9165 11.5332 33.3998 12.6166 33.3998C14.1332 33.3998 25.1832 4.7998 25.1832 4.7998C25.1832 4.7998 26.1053 5.19408 26.9166 6.0998C27.5666 6.82551 27.7832 7.61647 27.7832 7.61647C27.7832 7.61647 16.9499 35.5665 12.6166 33.3998C9.58291 35.0178 3.34001 20.2119 2.52227 18.2334C2.46277 18.097 2.43323 18.0165 2.43323 18.0165C2.43323 18.0165 2.46395 18.0923 2.52227 18.2334C2.76771 18.7962 3.52288 20.3106 4.81656 21.0498C6.33323 21.9165 7.63323 21.9165 7.63323 21.9165Z" fill="#FBA904"/>
<path d="M12.6166 33.3998C11.5332 33.3998 7.63323 21.9165 7.63323 21.9165C7.63323 21.9165 6.33323 21.9165 4.81656 21.0498C3.20927 20.1314 2.43323 18.0165 2.43323 18.0165C2.43323 18.0165 9.36656 35.1331 12.6166 33.3998ZM12.6166 33.3998C14.1332 33.3998 25.1832 4.7998 25.1832 4.7998C25.1832 4.7998 26.1053 5.19408 26.9166 6.0998C27.5666 6.82551 27.7832 7.61647 27.7832 7.61647C27.7832 7.61647 16.9499 35.5665 12.6166 33.3998Z" stroke="#FBA904" stroke-linecap="round" stroke-linejoin="round"/>
<path d="M12.6167 36.4327L11.3167 33.3994H13.9167L12.6167 36.4327Z" stroke="#FBA904" stroke-linecap="round" stroke-linejoin="round"/>
<circle cx="12.6167" cy="40.5493" r="4.11667" fill="#FDDD9B" stroke="#FBA904"/>
</svg>
