<svg width="24" height="24" viewBox="0 0 24 24" fill="none" xmlns="http://www.w3.org/2000/svg">
<path d="M12 2.162C15.2 2.162 15.584 2.174 16.849 2.232C17.6098 2.24103 18.3635 2.38073 19.077 2.645C19.5985 2.83802 20.0701 3.14557 20.457 3.545C20.8564 3.93191 21.164 4.40348 21.357 4.925C21.6213 5.63852 21.761 6.39216 21.77 7.153C21.828 8.418 21.84 8.798 21.84 12.002C21.84 15.206 21.828 15.586 21.77 16.851C21.761 17.6118 21.6213 18.3655 21.357 19.079C21.1574 19.5964 20.8516 20.0663 20.4595 20.4585C20.0673 20.8506 19.5974 21.1564 19.08 21.356C18.3665 21.6203 17.6128 21.76 16.852 21.769C15.587 21.827 15.207 21.839 12.003 21.839C8.799 21.839 8.419 21.827 7.154 21.769C6.39316 21.76 5.63952 21.6203 4.926 21.356C4.40448 21.163 3.93291 20.8554 3.546 20.456C3.14657 20.0691 2.83902 19.5975 2.646 19.076C2.38169 18.3625 2.24199 17.6088 2.233 16.848C2.175 15.583 2.163 15.203 2.163 11.999C2.163 8.795 2.175 8.415 2.233 7.15C2.24199 6.38916 2.38169 5.63552 2.646 4.922C2.83902 4.40048 3.14657 3.92891 3.546 3.542C3.93291 3.14257 4.40448 2.83502 4.926 2.642C5.63952 2.37771 6.39316 2.23801 7.154 2.229C8.416 2.174 8.8 2.162 12 2.162ZM12 0C8.741 0 8.332 0.014 7.052 0.072C6.05644 0.0920026 5.07148 0.280677 4.139 0.63C3.33846 0.931334 2.61328 1.40364 2.014 2.014C1.40352 2.61356 0.931205 3.3391 0.63 4.14C0.280788 5.07216 0.0921153 6.05678 0.072 7.052C0.014 8.332 0 8.741 0 12C0 15.259 0.014 15.668 0.072 16.948C0.0920026 17.9436 0.280677 18.9285 0.63 19.861C0.931334 20.6615 1.40364 21.3867 2.014 21.986C2.61328 22.5964 3.33846 23.0687 4.139 23.37C5.07148 23.7193 6.05644 23.908 7.052 23.928C8.332 23.986 8.741 24 12 24C15.259 24 15.668 23.986 16.948 23.928C17.9436 23.908 18.9285 23.7193 19.861 23.37C20.6583 23.0617 21.3823 22.5902 21.9868 21.9858C22.5912 21.3813 23.0627 20.6573 23.371 19.86C23.7203 18.9275 23.909 17.9426 23.929 16.947C23.986 15.668 24 15.259 24 12C24 8.741 23.986 8.332 23.928 7.052C23.9079 6.05678 23.7192 5.07216 23.37 4.14C23.0687 3.33946 22.5964 2.61427 21.986 2.015C21.3865 1.40416 20.661 0.931498 19.86 0.63C18.9278 0.280788 17.9432 0.0921153 16.948 0.072C15.668 0.014 15.259 0 12 0ZM12 5.838C10.7813 5.838 9.58991 6.1994 8.57658 6.87648C7.56324 7.55357 6.77344 8.51595 6.30705 9.6419C5.84067 10.7679 5.71864 12.0068 5.9564 13.2021C6.19416 14.3975 6.78104 15.4954 7.64281 16.3572C8.50458 17.219 9.60254 17.8058 10.7979 18.0436C11.9932 18.2814 13.2321 18.1593 14.3581 17.6929C15.4841 17.2266 16.4464 16.4368 17.1235 15.4234C17.8006 14.4101 18.162 13.2187 18.162 12C18.162 10.3657 17.5128 8.79841 16.3572 7.64281C15.2016 6.48721 13.6343 5.838 12 5.838ZM12 16C11.2089 16 10.4355 15.7654 9.77772 15.3259C9.11992 14.8864 8.60723 14.2616 8.30448 13.5307C8.00173 12.7998 7.92252 11.9956 8.07686 11.2196C8.2312 10.4437 8.61216 9.73098 9.17157 9.17157C9.73098 8.61216 10.4437 8.2312 11.2196 8.07686C11.9956 7.92252 12.7998 8.00173 13.5307 8.30448C14.2616 8.60723 14.8864 9.11992 15.3259 9.77772C15.7654 10.4355 16 11.2089 16 12C16 13.0609 15.5786 14.0783 14.8284 14.8284C14.0783 15.5786 13.0609 16 12 16ZM19.846 5.594C19.846 5.87881 19.7615 6.15721 19.6033 6.39402C19.4451 6.63083 19.2202 6.8154 18.9571 6.92439C18.6939 7.03338 18.4044 7.06189 18.1251 7.00633C17.8457 6.95077 17.5892 6.81362 17.3878 6.61223C17.1864 6.41085 17.0492 6.15426 16.9937 5.87493C16.9381 5.5956 16.9666 5.30606 17.0756 5.04294C17.1846 4.77981 17.3692 4.55491 17.606 4.39668C17.8428 4.23845 18.1212 4.154 18.406 4.154C18.5951 4.154 18.7824 4.19125 18.9571 4.26361C19.1318 4.33598 19.2905 4.44205 19.4242 4.57577C19.558 4.70948 19.664 4.86823 19.7364 5.04294C19.8088 5.21764 19.846 5.4049 19.846 5.594Z" fill="#415262"/>
</svg>
