<svg width="26" height="24" viewBox="0 0 26 24" fill="none" xmlns="http://www.w3.org/2000/svg">
<path fill-rule="evenodd" clip-rule="evenodd" d="M18.9365 0C22.9634 0 26 3.344 26 7.77846V16.2314C26 18.5009 25.2115 20.5514 23.7785 22.0062C22.493 23.3095 20.8254 24 18.9558 24H7.04056C5.1746 24 3.50819 23.3108 2.22149 22.0062C0.788465 20.5514 0 18.5009 0 16.2314V7.77846C0 3.344 3.03656 0 7.06353 0H18.9365ZM18.9365 1.84615H7.06353C4.02214 1.84615 1.81395 4.34092 1.81395 7.77846V16.2314C1.81395 18.0074 2.41377 19.5938 3.50214 20.6978C4.44056 21.6517 5.66558 22.1538 7.04419 22.1538H18.9365C18.9389 22.1514 18.9486 22.1538 18.9558 22.1538C20.3356 22.1538 21.5594 21.6517 22.4979 20.6978C23.5874 19.5938 24.186 18.0074 24.186 16.2314V7.77846C24.186 4.34092 21.9779 1.84615 18.9365 1.84615ZM20.8423 7.54314C21.158 7.93822 21.0987 8.51914 20.7105 8.8416L15.3364 13.2871C14.6567 13.8361 13.8441 14.1105 13.0327 14.1105C12.2236 14.1105 11.417 13.8385 10.7422 13.2945L5.31851 8.84406C4.92791 8.52406 4.86744 7.94191 5.18065 7.5456C5.49628 7.15052 6.06707 7.08775 6.45647 7.40652L11.8753 11.8521C12.5562 12.401 13.5152 12.401 14.2008 11.8471L19.5653 7.40899C19.9547 7.08529 20.5255 7.14683 20.8423 7.54314Z" fill="#415262"/>
</svg>
