<svg width="46" height="44" viewBox="0 0 46 44" fill="none" xmlns="http://www.w3.org/2000/svg">
<path d="M23.047 26.7672L8.78662 21.3694L15.0499 19.2266C15.5397 21.0583 17.3769 22.2163 19.2632 21.8432L30.0793 19.7039C30.5221 19.6163 30.9297 19.452 31.2912 19.2276L37.3073 21.3694L23.047 26.7672Z" fill="#D3C2D6"/>
<path d="M23 27.1016L8.7397 21.7039M23 27.1016L37.2604 21.7039M23 27.1016L17.173 29.544C16.4783 29.8352 15.6995 29.8544 14.9914 29.5978L3.39822 25.3974C2.50951 25.0754 2.52237 23.8141 3.41746 23.5103L8.7397 21.7039M23 27.1016L28.8271 29.544C29.5218 29.8352 30.3005 29.8544 31.0087 29.5978L42.6019 25.3974C43.4906 25.0754 43.4777 23.8141 42.5826 23.5103L37.2604 21.7039M8.7397 21.7039L3.5424 19.8582C2.63709 19.5367 2.6618 18.2479 3.57877 17.9614L13.8645 14.7471M8.7397 21.7039L14.8534 19.5733M37.2604 21.7039L42.4577 19.8582C43.363 19.5367 43.3383 18.2479 42.4213 17.9614L32.804 14.956M37.2604 21.7039L31.2443 19.5621M8.7397 27.3327V35.0999C8.7397 36.3032 9.45878 37.3902 10.5663 37.8609L21.8266 42.6465C22.5765 42.9652 23.4236 42.9652 24.1735 42.6465L35.4338 37.8609C36.5413 37.3902 37.2604 36.3032 37.2604 35.0999V27.3327M23 38.0176V31.3749" stroke="#916699" stroke-linecap="round" stroke-linejoin="round"/>
<path d="M23.9535 8.37987C24.7035 8.2322 25.4811 8.32449 26.1755 8.64361L30.2047 10.4954C31.2364 10.9696 31.9863 11.8983 32.2311 13.0051L32.8167 15.6526C33.2555 17.6364 31.9739 19.5926 29.9767 19.9876L19.1606 22.127C17.2078 22.5132 15.3077 21.2586 14.9005 19.3143L13.811 14.1112C13.7029 13.5951 13.6381 13.1028 13.8107 12.4961C13.9294 12.0788 14.3106 11.5037 14.3106 11.5037" stroke="#916699" stroke-linecap="round" stroke-linejoin="round"/>
<path d="M23.8209 12.8404L18.4319 13.8161C17.8265 13.9257 17.4239 14.5029 17.5312 15.1074L18.0867 18.2365C18.1944 18.843 18.7746 19.2474 19.3824 19.1397L24.8647 18.1673C25.4842 18.0574 25.8906 17.459 25.7633 16.8441L25.1145 13.7116C24.9917 13.119 24.4176 12.7323 23.8209 12.8404Z" fill="#D3C2D6" stroke="#916699" stroke-linecap="round" stroke-linejoin="round"/>
<path d="M11.8889 2.26819L17.3393 1.19504C17.9 1.08464 18.4813 1.15364 19.0003 1.3922L22.0124 2.77655C22.7837 3.13103 23.3443 3.82528 23.5273 4.6527L23.965 6.63185C24.2931 8.11488 23.335 9.57723 21.842 9.87254L13.7563 11.4718C12.2965 11.7605 10.876 10.8227 10.5716 9.36919L9.75714 5.47958C9.44809 4.00373 10.4064 2.56008 11.8889 2.26819Z" stroke="#916699" stroke-linecap="round" stroke-linejoin="round"/>
<path d="M17.24 4.53012L13.2114 5.25952C12.7589 5.34145 12.4579 5.773 12.5381 6.22487L12.9534 8.56408C13.0339 9.01747 13.4676 9.31981 13.9219 9.23923L18.0203 8.51235C18.4834 8.43021 18.7873 7.98282 18.6921 7.52317L18.207 5.18144C18.1153 4.73843 17.6861 4.44936 17.24 4.53012Z" fill="#D3C2D6" stroke="#916699" stroke-linecap="round" stroke-linejoin="round"/>
</svg>
