<svg width="41" height="35" viewBox="0 0 41 35" fill="none" xmlns="http://www.w3.org/2000/svg">
<path d="M20.0931 0H20.2797C20.4323 0.013387 20.5816 0.0518599 20.7216 0.113867C21.1165 0.312936 21.4571 0.604844 21.7143 0.96453C22.1456 1.54886 22.5085 2.18072 22.7959 2.84772C23.1573 3.64932 23.4557 4.47678 23.7536 5.30264C23.8043 5.45411 23.8691 5.60077 23.9094 5.75597C23.4507 5.81944 22.9954 5.90691 22.5391 5.98557C22.5005 5.90893 22.4666 5.83003 22.4375 5.7493C22.2623 5.31277 22.0298 4.90144 21.7463 4.52611C21.5405 4.2434 21.2616 4.02214 20.9395 3.88611C20.7008 3.7978 20.439 3.79404 20.1979 3.87545C19.9249 3.9729 19.6763 4.12818 19.469 4.33065C19.0628 4.73086 18.7154 5.18658 18.4372 5.68424C18.1171 6.21917 17.8585 6.78664 17.5814 7.34317C16.6865 9.16289 15.7916 10.9825 14.8966 12.8021C14.8 12.9887 14.7171 13.1831 14.6128 13.3655C14.5774 13.3511 14.5419 13.337 14.508 13.3199C14.0387 13.0799 13.548 12.8759 13.105 12.5914C13.1223 12.5218 13.1475 12.4543 13.1799 12.3903C13.6698 11.2336 14.1701 10.0808 14.6715 8.92876C15.2766 7.54583 15.8876 6.16478 16.5213 4.79385C16.8488 4.09039 17.1784 3.38718 17.5395 2.69999C17.7358 2.30556 17.9546 1.92272 18.1947 1.55333C18.4695 1.10847 18.8149 0.711276 19.2172 0.377334C19.4678 0.171586 19.7714 0.0407855 20.0931 0V0Z" fill="url(#paint0_linear_2054_1612)"/>
<path d="M23.9101 7.86031C24.1906 7.84144 24.4718 7.83699 24.7528 7.84698C25.332 9.32937 25.8793 10.824 26.3825 12.3333C26.894 13.826 27.3188 15.3469 27.6549 16.8885C27.804 17.5691 27.8781 18.264 27.8757 18.9608C27.8696 19.1502 27.8411 19.3381 27.7906 19.5208C27.7392 19.6853 27.652 19.8364 27.5353 19.9632C27.4185 20.0901 27.2751 20.1895 27.1154 20.2544C26.7848 20.3793 26.429 20.4231 26.078 20.3824C25.6491 20.3413 25.2258 20.2547 24.8152 20.124C24.0924 19.8931 23.3869 19.6111 22.7041 19.2803C22.0603 18.9792 21.4389 18.6346 20.7996 18.3251C20.5482 18.1987 20.2905 18.0829 20.042 17.9517C20.0814 17.9143 20.1249 17.8815 20.1719 17.8541C20.5073 17.6207 20.8401 17.3836 21.1701 17.1429C21.3176 17.0379 21.4584 16.9227 21.6091 16.8229C21.7315 16.8739 21.8424 16.9477 21.9605 17.0075C22.3184 17.2064 22.6887 17.3821 23.0692 17.5336C23.4012 17.6737 23.7568 17.7494 24.117 17.7568C24.4852 17.7597 24.8397 17.6174 25.1038 17.3608C25.3037 17.1074 25.4208 16.7985 25.4393 16.4763C25.4764 16.0163 25.4612 15.5536 25.3939 15.0971C25.2767 14.2663 25.1031 13.4444 24.8744 12.6371C24.4408 11.0488 23.8948 9.4923 23.3137 7.95178C23.3116 7.94084 23.3073 7.91898 23.3055 7.90804C23.5057 7.88058 23.7087 7.87737 23.9101 7.86031Z" fill="url(#paint1_linear_2054_1612)"/>
<path d="M13.0189 8.22777C13.6122 8.11123 14.2075 8.0059 14.8022 7.89844C14.7773 7.97127 14.7481 8.04251 14.7145 8.11177C14.5451 8.4987 14.3747 8.88509 14.2078 9.27309C14.1981 9.29858 14.1837 9.32196 14.1651 9.3419C13.5721 9.53176 13.01 9.80719 12.4967 10.1595C12.2118 10.3487 11.9779 10.6051 11.8156 10.9062C11.7591 11.0234 11.7274 11.151 11.7223 11.281C11.7173 11.411 11.739 11.5406 11.7862 11.6619C11.91 11.9434 12.0989 12.1915 12.3375 12.3856C12.7484 12.7257 13.2003 13.013 13.6826 13.2408C13.9293 13.3669 14.1878 13.4694 14.431 13.6016C15.9314 14.3653 17.4883 15.0107 19.0338 15.6771C19.1447 15.728 19.261 15.7661 19.3706 15.8192C19.2743 15.8894 19.1736 15.9535 19.0692 16.0112C18.6959 16.2349 18.3212 16.4557 17.9427 16.6701C17.8374 16.7235 17.7398 16.7947 17.6302 16.8397C17.5134 16.8013 17.4035 16.7451 17.2907 16.6965C14.9163 15.6183 12.5612 14.4995 10.2255 13.34C9.66218 13.0924 9.13104 12.7772 8.64382 12.4013C8.38331 12.2002 8.15342 11.9622 7.96135 11.695C7.78252 11.4521 7.68811 11.1573 7.69253 10.8558C7.71606 10.5996 7.82447 10.3585 8.00057 10.171C8.21118 9.94292 8.45687 9.75 8.72836 9.59949C9.27448 9.29794 9.85087 9.05483 10.448 8.87417C11.2931 8.61425 12.1513 8.39849 13.0189 8.22777V8.22777Z" fill="url(#paint2_linear_2054_1612)"/>
<path d="M23.5818 6.09744C24.9302 5.86213 26.2939 5.72523 27.6622 5.68784C28.0708 5.68131 28.4795 5.69912 28.886 5.74117C29.2484 5.77189 29.6066 5.84072 29.9546 5.94651C30.2546 6.03454 30.5335 6.18289 30.7742 6.3825C30.9454 6.53034 31.0697 6.72499 31.1318 6.9425C31.2043 7.29882 31.1601 7.66902 31.0056 7.99823C30.7588 8.5406 30.4325 9.04318 30.0376 9.48941C29.5617 10.045 29.0521 10.5709 28.5118 11.0641C28.0126 11.5243 27.4998 11.9707 26.9784 12.4051C26.9115 12.4628 26.8393 12.5139 26.7626 12.5577C26.6186 12.1345 26.4738 11.7113 26.3359 11.2859C26.3858 11.2217 26.4594 11.1814 26.5117 11.1188C26.7188 10.8817 26.9017 10.6245 27.0576 10.351C27.2548 10.0229 27.3615 9.64843 27.3667 9.26568C27.3616 8.98555 27.2718 8.71352 27.1091 8.48543C26.9036 8.20313 26.6277 7.97954 26.309 7.8369C25.9706 7.68172 25.6057 7.59266 25.234 7.5745C24.5468 7.53651 23.8577 7.55372 23.1732 7.62596C21.188 7.85439 19.2171 8.19323 17.2695 8.6409C17.4805 8.18757 17.7098 7.74517 17.9259 7.29504C17.9397 7.24784 17.9904 7.2417 18.0325 7.23344C19.046 7.02997 20.0511 6.77824 21.0656 6.57291C21.9007 6.39549 22.7394 6.23699 23.5818 6.09744Z" fill="url(#paint3_linear_2054_1612)"/>
<path d="M24.2503 12.9937C24.3666 12.915 24.4738 12.8243 24.5898 12.7451C24.605 12.7639 24.6152 12.7863 24.6194 12.8102C24.6887 13.0745 24.7506 13.34 24.8165 13.6048C24.8367 13.6726 24.8506 13.742 24.8578 13.8123C24.5703 14.0462 24.2943 14.2923 24.0106 14.5323C22.9166 15.4568 21.7872 16.3383 20.6223 17.1771C19.4004 18.0615 18.1279 18.8737 16.8113 19.6096C15.8658 20.1395 14.8796 20.5933 13.8622 20.967C13.4509 21.1085 13.026 21.2068 12.5944 21.2603C12.4511 21.2831 12.3063 21.2949 12.1613 21.2955C11.7391 21.3233 11.3177 21.2309 10.946 21.0288C10.7111 20.8831 10.5264 20.6691 10.4166 20.4155C10.3072 20.1578 10.2543 19.8796 10.2614 19.5998C10.2614 19.4755 10.2592 19.3512 10.267 19.2264C10.2967 18.9693 10.3394 18.7139 10.3947 18.4611C10.4982 18.0552 10.6347 17.6587 10.7707 17.2627C10.9604 16.7294 11.1738 16.2049 11.4108 15.6894C11.5874 15.299 11.7837 14.9179 11.9991 14.5475C12.0228 14.55 12.0459 14.5566 12.0674 14.567C12.5312 14.7942 12.9989 15.0136 13.4638 15.2384C13.5259 15.2618 13.585 15.2928 13.6395 15.3307C13.5931 15.4358 13.5328 15.5352 13.4947 15.6438C13.3865 15.9293 13.2958 16.2213 13.2232 16.5179C13.1515 16.7907 13.1156 17.0716 13.1166 17.3536C13.0993 17.6166 13.1591 17.8788 13.2886 18.1083C13.3877 18.2627 13.5344 18.3806 13.7065 18.4443C13.9637 18.5278 14.2375 18.5469 14.5039 18.5C14.8957 18.4343 15.2788 18.324 15.6456 18.1712C16.3517 17.8605 17.0418 17.5146 17.7132 17.1347C18.9816 16.4283 20.2158 15.6638 21.4349 14.8771C22.3818 14.2629 23.3203 13.6351 24.2503 12.9937Z" fill="url(#paint4_linear_2054_1612)"/>
<path d="M17.2344 23.9786C17.3344 23.941 17.4312 23.8939 17.5339 23.8643C17.5381 25.8613 17.5339 27.8586 17.536 29.8557C17.536 30.5418 17.5376 31.2277 17.536 31.9133C17.4027 31.9794 17.2595 32.025 17.1227 32.0839C16.8541 32.1906 16.5864 32.3008 16.3174 32.4072C16.2354 32.4441 16.151 32.4754 16.0648 32.501C16.056 32.0743 16.0635 31.6477 16.0611 31.221C16.0611 29.1245 16.0611 27.028 16.0611 24.9317C16.0656 24.7717 16.051 24.6091 16.0683 24.4488C16.4544 24.2891 16.8461 24.1381 17.2344 23.9786Z" fill="#F58221"/>
<path d="M29.2944 24.045C29.4489 23.9877 29.5972 23.9138 29.7548 23.8652C29.7622 24.7639 29.7548 25.6631 29.758 26.562C29.758 28.2952 29.758 30.0285 29.758 31.762C30.342 31.4844 30.9237 31.202 31.5075 30.9228C31.7382 30.8063 31.9768 30.7052 32.2046 30.5831C32.2136 30.1479 32.2046 29.7119 32.2083 29.2764C32.2118 29.1356 32.2009 28.9943 32.2134 28.8538C32.4966 28.7151 32.7825 28.5826 33.0668 28.4468C33.1431 28.4067 33.2218 28.3711 33.3023 28.3401C33.3119 29.0263 33.3023 29.713 33.3068 30.3993C33.3116 30.6707 33.2488 30.9389 33.1238 31.1799C32.9938 31.4202 32.8169 31.6319 32.6036 31.8025C32.6942 31.7647 32.782 31.7199 32.8702 31.6777C34.5212 30.8893 36.1725 30.1013 37.824 29.3137C38.6166 28.9385 39.4057 28.5553 40.1999 28.1831V28.7025C40.1917 28.7559 40.1815 28.8092 40.1733 28.8626C40.1083 29.2825 39.8826 29.6607 39.5439 29.9172C39.368 30.0375 39.1804 30.1396 38.9838 30.2217C36.9081 31.2127 34.8325 32.2037 32.7571 33.1948C32.6755 33.2391 32.5906 33.2768 32.503 33.3076C32.4923 32.8321 32.503 32.3556 32.4985 31.8799C32.369 31.9652 32.2329 32.0401 32.0915 32.1039C31.2996 32.4847 30.5074 32.8651 29.715 33.2452C29.5357 33.3263 29.3367 33.3537 29.1421 33.3243C28.9475 33.2949 28.7655 33.2098 28.6181 33.0793C28.5113 32.9854 28.4257 32.8697 28.3671 32.7401C28.3084 32.6105 28.2781 32.4699 28.2781 32.3276C28.2781 29.8944 28.2781 27.461 28.2781 25.0274C28.2824 24.8354 28.2693 24.6431 28.2842 24.4519C28.6216 24.3127 28.9582 24.1807 29.2944 24.045Z" fill="#F58221"/>
<path d="M8.80211 23.994C8.89652 23.9583 8.9888 23.914 9.08507 23.8857C9.08961 26.1567 9.08508 28.4276 9.08774 30.6982C9.08774 30.867 9.09521 31.0361 9.08641 31.2049C9.07536 31.3705 9.02115 31.5303 8.92917 31.6685C8.83718 31.8066 8.71063 31.9183 8.5621 31.9924C7.8359 32.3478 7.10384 32.691 6.37364 33.0379C5.378 33.5098 4.38236 33.9817 3.38671 34.4537C3.08651 34.5897 2.76127 34.6617 2.4317 34.6651C2.10024 34.6697 1.77187 34.6009 1.47011 34.4637C1.16835 34.3265 0.90066 34.1243 0.686211 33.8716C0.447477 33.5826 0.289247 33.2357 0.227505 32.866C0.177129 32.5473 0.195373 32.2215 0.281009 31.9105C0.366645 31.5994 0.517698 31.3102 0.724081 31.0622C0.937238 30.8058 1.20227 30.5973 1.50175 30.4505C3.02455 29.7301 4.54672 29.0089 6.06828 28.2868C6.07494 28.6847 6.06828 29.0831 6.07121 29.4812C6.07517 29.5721 6.0725 29.6632 6.06321 29.7537C4.70043 30.3967 3.33871 31.042 1.97806 31.6894C1.83086 31.7547 1.69956 31.8511 1.59321 31.972C1.48685 32.0929 1.40798 32.2354 1.36201 32.3897C1.31886 32.5394 1.31984 32.6982 1.36483 32.8474C1.40982 32.9965 1.49691 33.1294 1.61563 33.2302C1.7617 33.3385 1.93397 33.406 2.11475 33.4257C2.29553 33.4454 2.47829 33.4166 2.64425 33.3422C2.93761 33.211 3.22057 33.0641 3.51153 32.9308C4.87716 32.2831 6.24287 31.6357 7.60868 30.9886C7.61508 30.0369 7.60868 29.0852 7.61135 28.1334V24.97C7.61428 24.8022 7.60522 24.6345 7.61535 24.4673C8.01005 24.3076 8.40688 24.1524 8.80211 23.994Z" fill="#F58221"/>
<path d="M30.8946 26.3659C31.0672 26.348 31.2412 26.3827 31.3938 26.4653C31.5464 26.5479 31.6706 26.6746 31.75 26.8289C31.8232 26.9713 31.8543 27.1317 31.8395 27.2911C31.8247 27.4506 31.7647 27.6026 31.6666 27.7291C31.5663 27.8591 31.4308 27.9577 31.2762 28.0131C31.1216 28.0686 30.9544 28.0786 30.7943 28.0419C30.6374 28.0071 30.4935 27.9285 30.3795 27.8153C30.2654 27.702 30.1859 27.5586 30.1501 27.4019C30.118 27.2667 30.12 27.1257 30.156 26.9916C30.1919 26.8574 30.2606 26.7342 30.3559 26.6331C30.4976 26.4823 30.6888 26.3875 30.8946 26.3659V26.3659Z" fill="#F58221"/>
<path d="M32.6669 26.3659C32.8142 26.3507 32.9629 26.3736 33.0989 26.4322C33.2348 26.4909 33.3535 26.5835 33.4434 26.7011C33.5475 26.8382 33.6074 27.0038 33.615 27.1758C33.6227 27.3477 33.5777 27.518 33.4861 27.6637C33.3966 27.806 33.2673 27.9189 33.1143 27.9883C32.9613 28.0578 32.7913 28.0809 32.6253 28.0547C32.4593 28.0284 32.3046 27.9541 32.1805 27.8408C32.0563 27.7275 31.9682 27.5803 31.9269 27.4174C31.8912 27.274 31.8937 27.1238 31.9341 26.9816C31.9744 26.8395 32.0513 26.7104 32.157 26.6072C32.2952 26.4719 32.4747 26.387 32.6669 26.3659Z" fill="#F58221"/>
<path d="M20.8381 27.0137C21.4848 27.3771 22.1055 27.7848 22.6958 28.2339C23.1458 28.5683 23.5486 28.9619 23.8933 29.4041C24.0904 29.6475 24.218 29.9397 24.2627 30.2497C24.2699 30.4617 24.2626 30.6737 24.2661 30.8859C24.2703 30.9861 24.247 31.0855 24.1986 31.1734C24.0708 31.3728 23.8845 31.528 23.6653 31.6179C22.5919 32.1057 21.5187 32.5936 20.4455 33.0814C20.1114 33.2319 19.7503 33.3135 19.3838 33.3214C19.143 33.3318 18.907 33.2519 18.7222 33.0971C18.5409 32.9172 18.433 32.6764 18.4195 32.4214C18.3985 32.0422 18.4616 31.6631 18.6043 31.3112C18.864 30.6922 19.2253 30.1209 19.6732 29.6209C20.0304 29.2083 20.4169 28.822 20.8295 28.4649C20.8458 28.3185 20.8314 28.1699 20.8362 28.0225C20.8378 27.6859 20.8336 27.3497 20.8381 27.0137ZM21.8688 29.328C21.3014 29.6958 20.7624 30.1058 20.2567 30.5547C20.0284 30.7542 19.8289 30.9844 19.6639 31.2387C19.5894 31.3502 19.5521 31.4824 19.5572 31.6163C19.5608 31.6582 19.5754 31.6983 19.5995 31.7328C19.6235 31.7672 19.6562 31.7947 19.6943 31.8126C19.7934 31.8524 19.9007 31.8678 20.0071 31.8576C20.1917 31.8482 20.3721 31.7987 20.5357 31.7126C21.4084 31.2987 22.281 30.8846 23.1535 30.4702C23.0043 30.2558 22.8336 30.0573 22.6438 29.8779C22.4252 29.6639 22.1931 29.4641 21.9488 29.2798C21.9214 29.295 21.8944 29.3102 21.8688 29.328V29.328Z" fill="#F58221"/>
<path d="M10.9653 27.9397C11.2287 27.7724 11.5294 27.6729 11.8406 27.6501C12.2902 27.6119 12.7414 27.7029 13.141 27.9125C13.6255 28.178 14.0471 28.5446 14.3774 28.9875C14.6143 29.2829 14.8136 29.6067 14.9705 29.9515C15.0989 30.2344 15.1713 30.5394 15.1838 30.8499C15.1896 31.2002 15.0849 31.5434 14.8846 31.8309C14.6864 32.1097 14.4243 32.337 14.1203 32.4939C12.7466 33.1465 11.3725 33.7983 9.99779 34.4493C9.83964 34.5202 9.68656 34.6029 9.52548 34.6677C9.52406 34.1824 9.52406 33.6971 9.52548 33.212C10.1973 32.8843 10.8765 32.5701 11.551 32.2477C12.1978 31.9407 12.8447 31.6339 13.4917 31.3275C13.6544 31.2475 13.8221 31.1765 13.9821 31.0912C13.9531 30.9013 13.8993 30.716 13.8221 30.54C13.505 30.6808 13.1946 30.8373 12.8791 30.9829C12.4817 31.1928 12.0628 31.3592 11.6297 31.4794C11.3085 31.5695 10.9693 31.5741 10.6458 31.4928C10.4968 31.4496 10.3613 31.3689 10.2523 31.2584C10.1433 31.148 10.0644 31.0115 10.0231 30.8619C9.94064 30.4262 9.93162 29.9797 9.99645 29.5411C10.0437 29.2223 10.1492 28.915 10.3077 28.6344C10.4689 28.3541 10.6943 28.1161 10.9653 27.9397ZM11.3256 29.2715C11.1662 29.4073 11.0627 29.5973 11.035 29.8048C11.007 29.9958 11.0146 30.1904 11.0574 30.3787C11.1955 30.3253 11.324 30.2506 11.4609 30.192C11.8732 29.9964 12.2854 29.8009 12.6975 29.6053C12.8154 29.5459 12.941 29.4987 13.0522 29.4293C12.9427 29.2951 12.8034 29.1883 12.6454 29.1173C12.4874 29.0463 12.315 29.0131 12.142 29.0203C11.8497 29.0112 11.5626 29.0991 11.3256 29.2704V29.2715Z" fill="#F58221"/>
<path d="M27.2368 28.8733C27.2894 28.8458 27.3442 28.8225 27.4005 28.8037C27.4101 29.4914 27.4005 30.1797 27.4048 30.8677C27.4096 31.1892 27.3186 31.5048 27.1434 31.7743C26.9457 32.0759 26.6734 32.3214 26.3529 32.4869C24.865 33.195 23.3762 33.9015 21.8867 34.6064C21.8419 34.6296 21.7953 34.6494 21.7475 34.6655C21.7475 34.1821 21.7445 33.6981 21.7493 33.2146C21.7912 33.1851 21.8366 33.1611 21.8845 33.1431C23.3554 32.4439 24.8268 31.7457 26.2988 31.0482C26.311 30.4714 26.2953 29.8936 26.3063 29.3168C26.6143 29.1653 26.9274 29.0229 27.2368 28.8733Z" fill="#F58221"/>
<defs>
<linearGradient id="paint0_linear_2054_1612" x1="16.1518" y1="16.747" x2="21.8623" y2="4.74989" gradientUnits="userSpaceOnUse">
<stop stop-color="#F7941A"/>
<stop offset="1" stop-color="#FECA06"/>
</linearGradient>
<linearGradient id="paint1_linear_2054_1612" x1="23.8022" y1="19.0914" x2="31.6074" y2="9.32277" gradientUnits="userSpaceOnUse">
<stop stop-color="#F7941A"/>
<stop offset="1" stop-color="#FECA06"/>
</linearGradient>
<linearGradient id="paint2_linear_2054_1612" x1="12.7841" y1="15.7131" x2="15.1714" y2="2.60093" gradientUnits="userSpaceOnUse">
<stop stop-color="#F7941A"/>
<stop offset="1" stop-color="#FECA06"/>
</linearGradient>
<linearGradient id="paint3_linear_2054_1612" x1="24.2732" y1="20.9611" x2="24.2596" y2="8.26316" gradientUnits="userSpaceOnUse">
<stop stop-color="#17637C"/>
<stop offset="1" stop-color="#56C5D0"/>
</linearGradient>
<linearGradient id="paint4_linear_2054_1612" x1="17.5739" y1="20.9923" x2="17.5538" y2="8.29634" gradientUnits="userSpaceOnUse">
<stop stop-color="#17637C"/>
<stop offset="1" stop-color="#56C5D0"/>
</linearGradient>
</defs>
</svg>
