<svg width="41" height="30" viewBox="0 0 41 30" fill="none" xmlns="http://www.w3.org/2000/svg">
<path d="M1.92147 0.829537C2.53568 0.346866 3.28854 0.0739763 4.06937 0.0509844C4.96594 0.0488834 5.86247 0.0483178 6.75897 0.0492875C6.95147 0.0515669 7.14029 0.10237 7.30795 0.196993C7.47561 0.291617 7.61668 0.427005 7.71813 0.590626C7.87702 0.847146 7.93073 1.15511 7.86807 1.45027C7.82371 1.65393 7.72519 1.84185 7.58291 1.99417C7.44063 2.1465 7.25987 2.2576 7.0597 2.31573C6.8357 2.36017 6.60679 2.37472 6.37896 2.35901C5.62441 2.36192 4.86974 2.35355 4.11519 2.36325C3.78109 2.38429 3.46617 2.52659 3.22958 2.76342C2.99299 3.00026 2.85102 3.31532 2.83033 3.64944C2.82063 4.22387 2.82487 4.79915 2.82778 5.3737C2.83457 5.67726 2.94288 5.96979 3.13541 6.20458C3.32793 6.43938 3.59358 6.60289 3.88993 6.66902C4.18627 6.73515 4.49623 6.70008 4.77031 6.56941C5.04439 6.43874 5.26679 6.22001 5.40199 5.94813C5.62502 5.52316 5.5255 5.03018 5.54647 4.57115C5.54049 4.40614 5.56998 4.24176 5.63294 4.08912C5.6959 3.93647 5.79087 3.79911 5.91145 3.68629C6.09516 3.51707 6.3282 3.41107 6.57648 3.38379C6.82476 3.3565 7.07526 3.40937 7.29134 3.53465C7.46446 3.63661 7.60784 3.78216 7.7072 3.95678C7.80656 4.13141 7.85843 4.32902 7.85765 4.52994C7.8471 5.06582 7.89752 5.60995 7.77364 6.13662C7.59145 6.96107 7.13075 7.69757 6.46912 8.22212C5.80748 8.74667 4.98532 9.02723 4.14104 9.01657C3.29677 9.00592 2.48195 8.70469 1.83376 8.1636C1.18558 7.62251 0.743625 6.87462 0.582304 6.04583C0.544485 5.85431 0.535637 5.65795 0.5 5.46631V3.59684C0.539031 3.38144 0.547031 3.16047 0.596122 2.94725C0.77721 2.1083 1.24607 1.35913 1.92147 0.829537Z" fill="#572CC4"/>
<path d="M10.8049 0.0608772C10.9685 0.0344172 11.1358 0.043086 11.2957 0.0863068C11.4557 0.129528 11.6046 0.20631 11.7326 0.311546C11.8652 0.421036 11.9714 0.559056 12.0432 0.715312C12.1151 0.871569 12.1507 1.04203 12.1475 1.21398C12.1475 2.3474 12.1475 3.48095 12.1475 4.61462C12.15 5.96978 11.9186 7.34082 11.3543 8.57962C10.802 9.82056 9.90507 10.8768 8.77 11.6228C7.64749 12.3595 6.3337 12.751 4.99105 12.749C4.80997 12.7442 4.63259 12.6967 4.47336 12.6103C4.31413 12.524 4.17756 12.4012 4.0748 12.252C3.95539 12.0776 3.88556 11.874 3.87275 11.663C3.85994 11.4521 3.90464 11.2415 4.00207 11.054C4.101 10.8658 4.25017 10.7089 4.43298 10.6005C4.6158 10.4921 4.8251 10.4365 5.0376 10.44C6.02852 10.4329 6.98964 10.1003 7.77302 9.49345C8.60715 8.83021 9.21463 7.9242 9.51146 6.9007C9.71495 6.22686 9.82379 5.528 9.83486 4.82419C9.83692 3.606 9.83195 2.38781 9.83655 1.16949C9.84521 0.901332 9.94638 0.644423 10.1229 0.442355C10.2994 0.240288 10.5404 0.105506 10.8049 0.0608772Z" fill="#572CC4"/>
<path d="M14.6375 0.15775C14.8437 0.0380958 15.0816 -0.0155869 15.3192 0.0039147C15.5568 0.0234163 15.7827 0.115168 15.9667 0.266842C16.0941 0.372052 16.1969 0.503918 16.2678 0.653154C16.3388 0.80239 16.3762 0.965367 16.3773 1.13061C16.3782 3.49608 16.3736 5.86156 16.3811 8.22704C16.3738 8.45517 16.3934 8.68338 16.4395 8.90692C16.5104 9.1982 16.6456 9.4699 16.8353 9.70208C17.0249 9.93426 17.2641 10.121 17.5354 10.2486C17.8036 10.3768 18.0975 10.442 18.3948 10.4392C18.692 10.4364 18.9847 10.3658 19.2504 10.2326C19.5307 10.0951 19.775 9.89406 19.9639 9.64544C20.1527 9.39682 20.2808 9.10753 20.3381 8.80062C20.3662 8.61052 20.3755 8.41811 20.3658 8.22619C20.3818 7.05042 20.3692 5.87538 20.3738 4.7001C20.3783 4.40915 20.4858 4.12922 20.6773 3.91009C20.8687 3.69096 21.1317 3.54684 21.4194 3.50336C21.6467 3.47341 21.8777 3.51181 22.0831 3.61366C22.2884 3.71551 22.4588 3.8762 22.5725 4.07524C22.717 4.31585 22.718 4.60397 22.7799 4.87064C23.0877 6.29381 23.9344 7.56073 25.0215 8.51189C26.2738 9.61372 27.8427 10.2909 29.5034 10.4465C30.831 10.5551 32.1623 10.2856 33.3432 9.66911C34.6819 8.98123 35.8022 7.92728 36.7094 6.73721C37.2479 6.0229 37.7255 5.26468 38.1372 4.47052C38.2215 4.29285 38.3158 4.12013 38.4197 3.95318C38.5269 3.81223 38.6649 3.69759 38.8231 3.61798C38.9813 3.53837 39.1556 3.4959 39.3327 3.49378C39.5423 3.49083 39.7487 3.54514 39.9297 3.65088C40.1108 3.75661 40.2595 3.90975 40.3598 4.09379C40.45 4.26204 40.4979 4.44966 40.4994 4.64052C40.5009 4.83138 40.4561 5.01975 40.3687 5.18943C39.6011 6.72339 38.6583 8.18425 37.4665 9.42475C36.3818 10.5831 35.0617 11.4958 33.5948 12.1014C31.9646 12.7535 30.1849 12.9386 28.4554 12.6359C26.4368 12.2728 24.5729 11.3146 23.103 9.88439C22.9245 9.71469 22.7666 9.52487 22.5868 9.35735C22.4356 10.0313 22.1261 10.6596 21.684 11.1903C21.2418 11.721 20.6797 12.1389 20.0441 12.4094C19.1451 12.7903 18.143 12.8532 17.2034 12.5874C16.261 12.3176 15.4379 11.7362 14.8687 10.9382C14.3644 10.2317 14.0879 9.3879 14.0763 8.51989C14.0528 6.06956 14.0712 3.61936 14.0651 1.16903C14.0639 0.965169 14.1162 0.764562 14.2166 0.58715C14.3171 0.409739 14.4622 0.261701 14.6375 0.15775Z" fill="#572CC4"/>
<path d="M18.9313 0.058374C20.5216 0.0365556 22.1132 0.056677 23.7038 0.0491618C23.9246 0.0422565 24.1427 0.0991058 24.332 0.212908C24.5214 0.326711 24.6739 0.492647 24.7714 0.690865C24.8843 0.9217 24.9176 1.18339 24.8663 1.43518C24.8149 1.68696 24.6818 1.91469 24.4875 2.08288C24.28 2.26004 24.0161 2.35728 23.7434 2.35706C22.19 2.35787 20.6366 2.35787 19.0829 2.35706C18.8868 2.35766 18.6937 2.30781 18.5224 2.21228C18.3511 2.11676 18.2072 1.97878 18.1045 1.8116C17.9798 1.60823 17.9205 1.3715 17.9347 1.13338C17.9488 0.895245 18.0356 0.667177 18.1834 0.479954C18.3687 0.247864 18.6368 0.0967289 18.9313 0.058374Z" fill="#572CC4"/>
<path d="M20.6711 16.1262C20.81 15.9942 20.9792 15.8983 21.1639 15.8471C21.3485 15.7959 21.543 15.791 21.73 15.8327C21.9344 15.8781 22.1225 15.9784 22.2742 16.1227C22.4258 16.2671 22.5352 16.4501 22.5906 16.652C22.6367 16.8384 22.6548 17.0307 22.6986 17.218C22.9531 18.2859 23.4711 19.273 24.2053 20.0891C25.256 21.2775 26.6342 22.1293 28.167 22.5376C29.5925 22.9222 31.1022 22.8544 32.4875 22.3436C33.8953 21.8208 35.116 20.8797 36.1023 19.764C36.9823 18.7513 37.7259 17.6278 38.3142 16.4221C38.4586 16.1555 38.7008 15.9553 38.9898 15.8636C39.2789 15.772 39.5922 15.7961 39.8639 15.9309C40.1301 16.066 40.3338 16.2988 40.4324 16.5805C40.5311 16.8623 40.5172 17.1713 40.3936 17.443C39.3545 19.5377 37.966 21.5084 36.0985 22.9516C35.1323 23.7066 34.0394 24.2835 32.871 24.6553C31.0252 25.2291 29.049 25.2316 27.2017 24.6625C25.6704 24.1924 24.2677 23.3766 23.102 22.2781C22.8902 22.0857 22.7062 21.8652 22.4977 21.6701C22.3583 22.2827 22.0882 22.858 21.7057 23.3565C21.3233 23.8551 20.8377 24.265 20.282 24.5583C19.5015 24.972 18.6129 25.1361 17.7361 25.0285C16.8594 24.9209 16.0368 24.5468 15.3795 23.9566C15.3227 23.9054 15.2625 23.8581 15.1993 23.8151C14.6569 24.36 13.9599 24.7249 13.203 24.8603C12.6723 24.9548 12.1272 24.9321 11.6062 24.7936C11.0851 24.6551 10.6007 24.4042 10.187 24.0586C9.77318 23.713 9.44007 23.281 9.21102 22.7929C8.98196 22.3049 8.86251 21.7726 8.86105 21.2334C8.57874 21.5059 8.3191 21.8016 8.02371 22.0616C6.40211 23.5409 4.39438 24.5303 2.23335 24.9149C1.91177 24.9755 1.5674 25.0434 1.25249 24.9161C1.05249 24.8396 0.876945 24.7103 0.744463 24.5421C0.611981 24.3738 0.527507 24.1729 0.5 23.9605L0.5 23.709C0.531545 23.4619 0.640428 23.2311 0.811073 23.0496C0.981718 22.8682 1.20538 22.7453 1.45007 22.6987C2.88068 22.5072 4.24625 21.9822 5.43665 21.1659C7.04682 20.0681 8.26838 18.489 8.9265 16.6546C9.01161 16.4514 9.15365 16.2771 9.33553 16.1528C9.5174 16.0284 9.73135 15.9593 9.9516 15.9538C10.8383 15.9517 11.7254 15.9546 12.6121 15.9525C13.5259 15.9634 14.403 16.314 15.0725 16.936C15.742 17.558 16.1561 18.4069 16.2341 19.3174C16.2637 19.6262 16.2417 19.9356 16.2531 20.2454C16.273 20.6121 16.2332 20.9899 16.3536 21.344C16.4598 21.6859 16.6558 21.993 16.921 22.2333C17.1863 22.4737 17.5112 22.6385 17.8619 22.7106C18.2125 22.7827 18.5761 22.7595 18.9147 22.6433C19.2533 22.5271 19.5545 22.3222 19.787 22.0499C20.0721 21.7222 20.2399 21.3088 20.2638 20.875C20.2759 19.5502 20.2807 18.2253 20.3123 16.9012C20.3281 16.6065 20.4563 16.3292 20.6706 16.1264M11.1796 18.2634C11.1762 19.0634 11.1708 19.8641 11.1889 20.6641C11.2 21.0097 11.1451 21.3696 11.2713 21.701C11.3803 22.002 11.5916 22.2552 11.8682 22.4165C12.1449 22.5778 12.4693 22.6369 12.785 22.5835C13.1007 22.5302 13.3877 22.3677 13.596 22.1245C13.8042 21.8812 13.9205 21.5727 13.9246 21.2525C13.9301 20.72 13.9217 20.188 13.9234 19.6555C13.9285 19.356 13.8353 19.063 13.6582 18.8214C13.4811 18.5798 13.2297 18.4028 12.9425 18.3175C12.6851 18.2373 12.4128 18.2625 12.1479 18.2596C11.8254 18.2624 11.5026 18.254 11.1802 18.2632L11.1796 18.2634Z" fill="#572CC4"/>
<path d="M1.01167 15.8741C1.10441 15.8096 1.21351 15.7728 1.32633 15.7678C1.43915 15.7628 1.55107 15.7899 1.64913 15.8459C2.23032 16.1844 2.72529 16.6528 3.09532 17.2144C3.39877 16.753 3.78588 16.3523 4.23667 16.0332C4.42479 15.9047 4.62758 15.7544 4.86698 15.7674C5.00431 15.7752 5.13443 15.8314 5.23416 15.9262C5.33389 16.0209 5.39677 16.148 5.41159 16.2847C5.42354 16.395 5.40311 16.5063 5.35277 16.6051C5.30244 16.7039 5.2244 16.7859 5.12819 16.8411C4.76404 17.0494 4.44665 17.3304 4.19577 17.6666C3.94489 18.0029 3.76588 18.3871 3.66988 18.7955C3.6427 18.912 3.58174 19.0178 3.49464 19.0998C3.40755 19.1817 3.29819 19.2361 3.1803 19.2561C3.03281 19.2764 2.88306 19.2408 2.76052 19.1563C2.63797 19.0717 2.5515 18.9444 2.51811 18.7993C2.34082 18.0504 1.88981 17.3949 1.25373 16.9617C1.11349 16.8681 0.942941 16.8005 0.854819 16.6472C0.779693 16.522 0.754129 16.3732 0.783156 16.2302C0.812183 16.0871 0.8937 15.9601 1.01167 15.8741Z" fill="#572CC4"/>
<path d="M15.7627 27.0291C16.4415 27.0022 17.1236 27.0253 17.8035 27.0177C18.7282 27.0177 19.6529 27.0177 20.5776 27.0177C20.7606 27.0153 20.9416 27.0566 21.1054 27.1383C21.2692 27.2199 21.4112 27.3395 21.5194 27.4871C21.6497 27.6672 21.7258 27.8807 21.7389 28.1025C21.752 28.3243 21.7015 28.5453 21.5934 28.7394C21.486 28.9245 21.3309 29.0773 21.1442 29.1819C20.9575 29.2865 20.7462 29.3391 20.5323 29.3341C19.0212 29.3337 17.51 29.3337 15.9989 29.3341C15.8052 29.3381 15.6134 29.2957 15.4396 29.2103C15.2658 29.1248 15.115 28.9989 14.9999 28.8431C14.8897 28.6868 14.8195 28.5058 14.7955 28.3161C14.7714 28.1263 14.7941 27.9336 14.8617 27.7546C14.9347 27.5651 15.0564 27.3982 15.2146 27.2707C15.3728 27.1433 15.5619 27.06 15.7627 27.0291Z" fill="#572CC4"/>
</svg>
