<svg width="39" height="45" viewBox="0 0 39 45" fill="none" xmlns="http://www.w3.org/2000/svg">
<path d="M9.8896 2.52029L20.7581 0.590115C21.8762 0.391552 23.0286 0.550175 24.051 1.04338L29.9841 3.9054C31.5034 4.63827 32.5914 6.03836 32.9243 7.68906L33.7207 11.6374C34.3175 14.5961 32.3599 17.466 29.3826 17.9974L13.2586 20.8752C10.3477 21.3947 7.56018 19.4788 7.00934 16.5797L5.53524 8.82168C4.97592 5.87803 6.93339 3.0453 9.8896 2.52029Z" stroke="#668099" stroke-linecap="round" stroke-linejoin="round"/>
<path d="M20.3743 7.19387L12.3689 8.64328C11.4697 8.80608 10.8716 9.66364 11.031 10.5616L11.8562 15.2099C12.0161 16.1109 12.878 16.7116 13.7809 16.5515L21.9249 15.1071C22.8452 14.9439 23.4489 14.0549 23.2598 13.1415L22.296 8.48813C22.1136 7.6078 21.2607 7.03337 20.3743 7.19387Z" fill="#C2CCD6" stroke="#668099" stroke-linecap="round" stroke-linejoin="round"/>
<path d="M26.8955 43.8403V32.3751C26.8955 31.4317 26.2367 30.6103 25.3065 30.4528C21.5324 29.8139 17.9121 29.8139 14.138 30.4528C13.2078 30.6103 12.5491 31.4317 12.5491 32.3751V43.8403" stroke="#668099" stroke-linecap="round" stroke-linejoin="round"/>
<path d="M38.2743 42.8402V37.893C38.2743 36.4778 37.2869 35.2404 35.8866 35.0358C32.8577 34.5932 29.9147 34.5666 26.8962 34.956V43.8402H37.2743C37.8266 43.8402 38.2743 43.3925 38.2743 42.8402Z" fill="#668099"/>
<path d="M12.5498 38.0953C9.53123 37.706 6.58825 37.7326 3.55934 38.1752C2.15903 38.3798 1.17163 39.6172 1.17163 41.0324V42.8402C1.17163 43.3925 1.61935 43.8402 2.17163 43.8402H26.8962M26.8962 43.8402H37.2743C37.8266 43.8402 38.2743 43.3925 38.2743 42.8402V37.893C38.2743 36.4778 37.2869 35.2404 35.8866 35.0358C32.8577 34.5932 29.9147 34.5666 26.8962 34.956V43.8402Z" stroke="#668099" stroke-linecap="round" stroke-linejoin="round"/>
</svg>
