<svg width="52" height="52" viewBox="0 0 52 52" fill="none" xmlns="http://www.w3.org/2000/svg">
<path d="M20.6841 33.1323L29.1916 31.4573C30.0668 31.2849 30.9742 31.3926 31.7844 31.765L36.486 33.9258C37.6899 34.4792 38.5649 35.5628 38.8506 36.8543L39.5339 39.9436C40.0459 42.2585 38.5505 44.5411 36.22 45.002L23.5989 47.4983C21.3203 47.949 19.1031 46.4851 18.628 44.2163L17.3566 38.145C16.8743 35.8414 18.3701 33.588 20.6841 33.1323Z" stroke="#4DB3B2" stroke-linecap="round" stroke-linejoin="round"/>
<path d="M29.0369 36.6608L22.7486 37.7993C22.0423 37.9272 21.5725 38.6008 21.6977 39.3061L22.3459 42.9574C22.4716 43.6651 23.1486 44.137 23.8578 44.0112L30.2549 42.8766C30.9778 42.7484 31.4521 42.0501 31.3035 41.3326L30.5464 37.6774C30.4032 36.9859 29.7332 36.5347 29.0369 36.6608Z" fill="#B8E0E0" stroke="#4DB3B2" stroke-linecap="round" stroke-linejoin="round"/>
<rect x="37.8562" y="18.9658" width="3.32713" height="11.2291" rx="1.66357" transform="rotate(60 37.8562 18.9658)" stroke="#4DB3B2"/>
<path d="M33.5921 10.857L33.3771 10.4056L33.3771 10.4056L33.5921 10.857ZM32.2565 9.97436L32.7225 9.79311L32.2565 9.97436ZM20.8567 18.2163L20.565 17.8102L20.8567 18.2163ZM16.3856 20.4784L16.1845 20.0206L16.3856 20.4784ZM18.3257 23.8388L18.6216 24.2418L18.3257 23.8388ZM22.5203 21.0977L22.7261 21.5534L22.5203 21.0977ZM28.8254 21.7807L29.0754 22.2137L28.8254 21.7807ZM34.7991 18.3318L34.5491 17.8988L34.7991 18.3318ZM35.359 15.348L35.749 15.0351L35.359 15.348ZM35.2613 13.7482L34.9778 13.3363L34.9778 13.3363L35.2613 13.7482ZM35.3823 13.6534L35.7365 14.0062L35.7365 14.0062L35.3823 13.6534ZM33.7347 10.7997L33.8631 11.2829L33.8631 11.2829L33.7347 10.7997ZM23.9815 20.4132L23.7634 19.9633L23.9815 20.4132ZM33.7644 11.3285C33.7802 11.3213 33.7953 11.3141 33.807 11.3085L33.3771 10.4056C33.3644 10.4116 33.355 10.4161 33.3459 10.4203L33.7644 11.3285ZM31.7905 10.1556L31.9666 10.6084L32.8986 10.2459L32.7225 9.79311L31.7905 10.1556ZM29.6425 9.40032C30.4387 8.94066 31.4573 9.29881 31.7905 10.1556L32.7225 9.79311C32.1671 8.36511 30.4695 7.76819 29.1425 8.5343L29.6425 9.40032ZM23.6688 12.8492L29.6425 9.40032L29.1425 8.5343L23.1688 11.9832L23.6688 12.8492ZM23.1198 14.8983C22.7056 14.1808 22.9514 13.2635 23.6688 12.8492L23.1688 11.9832C21.9731 12.6736 21.5634 14.2026 22.2538 15.3983L23.1198 14.8983ZM21.1484 18.6224C21.583 18.3102 22.022 18.0044 22.4625 17.7057L21.9012 16.8781C21.4538 17.1815 21.0074 17.4924 20.565 17.8102L21.1484 18.6224ZM16.5867 20.9362C18.2966 20.185 20.028 19.4272 21.1484 18.6224L20.565 17.8102C19.5499 18.5394 17.9342 19.252 16.1845 20.0206L16.5867 20.9362ZM10.4159 26.1653C10.1316 25.6728 10.1317 25.2609 10.3022 24.8701C10.4876 24.4449 10.8959 24.0003 11.5218 23.5383C12.7743 22.614 14.6751 21.776 16.5867 20.9362L16.1845 20.0206C14.31 20.8441 12.2901 21.7285 10.928 22.7337C10.2466 23.2366 9.67418 23.8086 9.38557 24.4703C9.08198 25.1664 9.11479 25.9117 9.54985 26.6653L10.4159 26.1653ZM18.0298 23.4357C16.3467 24.6713 14.6706 25.8985 13.2438 26.521C12.5308 26.8321 11.9416 26.9633 11.4807 26.9113C11.057 26.8635 10.7002 26.6577 10.4159 26.1653L9.54985 26.6653C9.98492 27.4188 10.614 27.8199 11.3686 27.905C12.086 27.9859 12.8676 27.7762 13.6437 27.4375C15.1953 26.7606 16.9712 25.4535 18.6216 24.2418L18.0298 23.4357ZM22.3144 20.642C21.0573 21.2099 19.5353 22.3305 18.0298 23.4357L18.6216 24.2418C20.1621 23.1109 21.587 22.0679 22.7261 21.5534L22.3144 20.642ZM23.7634 19.9633C23.2852 20.1951 22.8015 20.422 22.3144 20.642L22.7261 21.5534C23.2219 21.3294 23.7137 21.0986 24.1995 20.8632L23.7634 19.9633ZM28.5754 21.3477C27.858 21.7619 26.9406 21.5161 26.5264 20.7987L25.6604 21.2987C26.3507 22.4944 27.8797 22.9041 29.0754 22.2137L28.5754 21.3477ZM34.5491 17.8988L28.5754 21.3477L29.0754 22.2137L35.0491 18.7648L34.5491 17.8988ZM34.969 15.6609C35.5444 16.378 35.3453 17.4391 34.5491 17.8988L35.0491 18.7648C36.3761 17.9987 36.7079 16.2301 35.749 15.0351L34.969 15.6609ZM34.6638 15.2806L34.969 15.6609L35.749 15.0351L35.4438 14.6548L34.6638 15.2806ZM34.9778 13.3363C34.9671 13.3437 34.9533 13.3532 34.9391 13.3632L35.5165 14.1797C35.5246 14.174 35.5332 14.1681 35.5448 14.1601L34.9778 13.3363ZM35.028 13.3005C35.0305 13.298 35.0297 13.2993 35.0215 13.3055C35.012 13.3127 35.0007 13.3206 34.9778 13.3363L35.5448 14.1601C35.5813 14.135 35.6619 14.0812 35.7365 14.0062L35.028 13.3005ZM34.7619 12.1091C35.0589 12.6235 35.1033 12.9353 35.095 13.0951C35.0873 13.2428 35.0332 13.2953 35.028 13.3005L35.7365 14.0062C35.8917 13.8504 36.0714 13.573 36.0936 13.1473C36.1153 12.7338 35.9859 12.229 35.628 11.6091L34.7619 12.1091ZM33.8631 11.2829C33.8702 11.281 33.9428 11.2605 34.0745 11.3276C34.2171 11.4003 34.465 11.5947 34.7619 12.1091L35.628 11.6091C35.2701 10.9892 34.8976 10.6247 34.5286 10.4367C34.1489 10.2431 33.8188 10.26 33.6063 10.3165L33.8631 11.2829ZM33.807 11.3085C33.8321 11.2965 33.8446 11.2907 33.8556 11.2861C33.8651 11.2821 33.8666 11.282 33.8631 11.2829L33.6063 10.3165C33.504 10.3436 33.4171 10.3865 33.3771 10.4056L33.807 11.3085ZM35.4438 14.6548C35.3289 14.5117 35.356 14.2932 35.5165 14.1797L34.9391 13.3632C34.3189 13.8018 34.1803 14.678 34.6638 15.2806L35.4438 14.6548ZM24.1995 20.8632C24.7334 20.6045 25.3709 20.7974 25.6604 21.2987L26.5264 20.7987C25.9677 19.8309 24.756 19.4823 23.7634 19.9633L24.1995 20.8632ZM22.2538 15.3983C22.5426 15.8985 22.3912 16.5458 21.9012 16.8781L22.4625 17.7057C23.3744 17.0873 23.6779 15.865 23.1198 14.8983L22.2538 15.3983ZM33.3459 10.4203C33.1676 10.5024 32.9651 10.4167 32.8986 10.2459L31.9666 10.6084C32.2467 11.3283 33.0747 11.6463 33.7644 11.3285L33.3459 10.4203Z" fill="#4DB3B2"/>
<rect x="28.7065" y="3.12012" width="3.32713" height="11.2291" rx="1.66357" transform="rotate(60 28.7065 3.12012)" stroke="#4DB3B2"/>
<path d="M29.5464 6.23633L29.5269 6.39565C29.428 7.20316 29.9159 7.96729 30.6901 8.21728V8.21728M22.4061 13V13C22.6047 12.1989 22.1773 11.3749 21.4081 11.0757L21.2624 11.0191" stroke="#4DB3B2" stroke-linecap="round" stroke-linejoin="round"/>
<path d="M37.2405 19.5645L37.0927 19.5017C36.344 19.1836 35.9262 18.379 36.0968 17.5835V17.5835M27.8128 22.3663V22.3663C28.6059 22.5949 29.1058 23.3769 28.9803 24.1927L28.9565 24.3472" stroke="#4DB3B2" stroke-linecap="round" stroke-linejoin="round"/>
</svg>
