<svg width="24" height="24" viewBox="0 0 24 24" fill="none" xmlns="http://www.w3.org/2000/svg">
<path d="M12 0C18.6274 0 24 5.37258 24 12C24 18.6274 18.6274 24 12 24C5.37258 24 0 18.6274 0 12C0 5.37258 5.37258 0 12 0Z" fill="#415262"/>
<path d="M9.79923 17.5C9.41122 17.5 9.47623 17.35 9.34222 16.983L8.19922 13.221L16.9992 8L9.79923 17.5Z" fill="#C2CCD6"/>
<path d="M9.80078 17.4984C10.0446 17.4953 10.2607 17.3792 10.3995 17.2001L10.4008 17.1984L12.0008 15.6434L10.0008 14.4434L9.80078 17.4984Z" fill="#668099"/>
<path d="M10.0032 14.437L14.8392 18.01C15.3912 18.31 15.7892 18.16 15.9272 17.498L17.8962 8.22196C18.0962 7.41396 17.5882 7.04796 17.0602 7.28697L5.50016 11.746C4.71116 12.062 4.71517 12.503 5.35616 12.698L8.32215 13.624L15.1892 9.29097C15.5132 9.09098 15.8112 9.19996 15.5642 9.41697L10.0032 14.437Z" fill="#FCFCFD"/>
</svg>
