<svg width="22" height="22" viewBox="0 0 22 22" fill="none" xmlns="http://www.w3.org/2000/svg">
<path d="M0.498047 11.0001C0.498047 8.92336 1.11431 6.89328 2.26807 5.16657C3.42182 3.43985 5.06136 2.0941 6.97998 1.29938C8.8986 0.504658 11.0101 0.296577 13.0469 0.701722C15.0837 1.10687 16.9544 2.10681 18.4229 3.57526C19.8913 5.04371 20.8912 6.91492 21.2964 8.95172C21.7015 10.9885 21.4939 13.0995 20.6992 15.0181C19.9045 16.9368 18.5583 18.5768 16.8315 19.7305C15.1048 20.8843 13.0748 21.5001 10.998 21.5001C8.21425 21.4969 5.54559 20.3894 3.57715 18.421C1.6087 16.4525 0.501223 13.7839 0.498047 11.0001ZM1.49805 11.0001C1.49805 12.879 2.05525 14.7156 3.09912 16.2779C4.14299 17.8402 5.62689 19.0579 7.36279 19.7769C9.09869 20.4959 11.0087 20.684 12.8516 20.3174C14.6944 19.9509 16.3872 19.0459 17.7158 17.7173C19.0444 16.3887 19.9494 14.6959 20.3159 12.8531C20.6825 11.0103 20.4939 9.10022 19.7749 7.36432C19.0559 5.62842 17.8386 4.14501 16.2764 3.10114C14.7141 2.05726 12.877 1.50006 10.998 1.50006C8.47964 1.5035 6.06585 2.50532 4.28516 4.28619C2.50446 6.06707 1.50269 8.48165 1.49951 11.0001H1.49805ZM6.83105 13.7769C6.75774 13.6664 6.73156 13.5314 6.75781 13.4014C6.78407 13.2715 6.86074 13.1574 6.97119 13.084L10.4995 10.733V6.00006C10.4995 5.86745 10.5517 5.74031 10.6455 5.64655C10.7393 5.55278 10.8669 5.50006 10.9995 5.50006C11.1321 5.50006 11.2593 5.55278 11.353 5.64655C11.4468 5.74031 11.4995 5.86745 11.4995 6.00006V11.0001C11.4993 11.0824 11.4786 11.1632 11.4399 11.2359C11.4012 11.3086 11.3455 11.3709 11.2773 11.4171L7.52637 13.9171C7.47163 13.9535 7.41023 13.9786 7.3457 13.9913C7.28118 14.004 7.21486 14.0038 7.15039 13.9908C7.08592 13.9778 7.02429 13.9523 6.96973 13.9156C6.91517 13.8789 6.86884 13.8317 6.83252 13.7769H6.83105Z" fill="#009F7D"/>
</svg>
